<svg xmlns="http://www.w3.org/2000/svg" xmlns:xlink="http://www.w3.org/1999/xlink" id="Layer_1" x="0" y="0" version="1.1" viewBox="0 0 512 512" xml:space="preserve" style="enable-background:new 0 0 512 512"><path style="fill:#f0f0f0" d="M256,0c141.384,0,256,114.616,256,256S397.384,512,256,512c0-11.13-33.391-256-33.391-256L256,0z"/><path style="fill:#496e2d" d="M256,512C114.616,512,0,397.384,0,256S114.616,0,256,0"/><g><polygon style="fill:#d80027" points="311.003 206.896 289.999 235.841 255.982 224.809 277.02 253.729 256.018 282.674 290.022 271.603 311.06 300.522 311.038 264.761 345.043 253.689 311.027 242.659"/><path style="fill:#d80027" d="M277.237,328.348c-39.956,0-72.348-32.392-72.348-72.348s32.392-72.348,72.348-72.348 c12.458,0,24.181,3.15,34.415,8.696c-16.056-15.701-38.012-25.392-62.241-25.392c-49.178,0-89.043,39.866-89.043,89.043 s39.866,89.043,89.043,89.043c24.23,0,46.186-9.691,62.241-25.392C301.418,325.198,289.695,328.348,277.237,328.348z"/></g></svg>