<svg xmlns="http://www.w3.org/2000/svg" xmlns:xlink="http://www.w3.org/1999/xlink" id="Layer_1" x="0" y="0" version="1.1" viewBox="0 0 512 512" xml:space="preserve" style="enable-background:new 0 0 512 512"><circle style="fill:#fcfcfc" cx="256" cy="256" r="256"/><g><polygon style="fill:#a2001d" points="105.739 237.449 77.913 186.966 105.739 137.275 133.565 186.966"/><polygon style="fill:#a2001d" points="50.087 237.449 22.261 186.966 50.087 137.275 77.913 186.966"/><polygon style="fill:#a2001d" points="105.739 374.725 77.913 324.242 105.739 274.551 133.565 324.242"/><polygon style="fill:#a2001d" points="50.087 374.725 22.261 324.242 50.087 274.551 77.913 324.242"/><path style="fill:#a2001d" d="M133.565,49.692l-7.878-14.068c-14.13,8.372-27.383,18.065-39.594,28.909l19.646,35.641 L133.565,49.692z"/><path style="fill:#a2001d" d="M105.739,411.826l-19.854,35.456c12.2,10.858,25.444,20.566,39.568,28.955l8.113-14.719 L105.739,411.826z"/></g><path style="fill:#6da544" d="M155.826,322.783v168.863C186.595,504.743,220.448,512,256,512	c110.071,0,203.906-69.472,240.077-166.957L155.826,322.783z"/><path style="fill:#a2001d" d="M496.077,345.043C506.368,317.31,512,287.314,512,256C512,114.616,397.384,0,256,0	c-35.549,0-69.405,7.253-100.174,20.348v324.696H496.077z"/></svg>