<svg xmlns="http://www.w3.org/2000/svg" xmlns:xlink="http://www.w3.org/1999/xlink" id="Layer_1" x="0" y="0" version="1.1" viewBox="0 0 512 512" xml:space="preserve" style="enable-background:new 0 0 512 512"><circle style="fill:#f0f0f0" cx="256" cy="256" r="256"/><path style="fill:#ffda44" d="M256,0C165.23,0,85.5,47.243,40.044,118.479l347.159,357.37C461.946,431.147,512,349.423,512,256	C512,114.616,397.384,0,256,0z"/><g><path style="fill:#0052b4" d="M512,256c0-66.422-25.298-126.93-66.783-172.428v344.857C486.702,382.93,512,322.422,512,256z"/><path style="fill:#0052b4" d="M319.789,481.873l26.815-0.017l8.272-25.509l8.302,25.499l13.45-0.008 c8.247-4.415,16.224-9.267,23.9-14.529L44.689,111.471c-5.864,8.556-11.212,17.49-16.021,26.75l3.162,9.712l26.815-0.017 l-21.684,15.775l8.302,25.499l-21.704-15.748l-12.945,9.416C3.713,206.034,0,230.583,0,256c0,141.384,114.616,256,256,256 c29.892,0,58.583-5.132,85.25-14.552L319.789,481.873z M57.099,244.87l8.27-25.508l-21.702-15.75l26.815-0.017l8.271-25.509 l8.302,25.499l26.815-0.017l-21.685,15.775l8.302,25.499l-21.704-15.748L57.099,244.87z M112.324,300.522l8.27-25.508 l-21.702-15.75l26.815-0.017l8.271-25.509l8.302,25.499l26.815-0.017l-21.684,15.775l8.302,25.499l-21.704-15.748L112.324,300.522z M167.548,356.174l8.27-25.508l-21.702-15.75l26.815-0.017l8.271-25.509l8.302,25.499l26.815-0.017l-21.684,15.775l8.302,25.499 l-21.704-15.75L167.548,356.174z M244.457,396.051l-21.685,15.775l8.27-25.508l-21.702-15.75l26.815-0.017l8.272-25.509 l8.302,25.499l26.815-0.017l-21.684,15.775l8.302,25.499L244.457,396.051z M277.997,467.478l8.27-25.508l-21.702-15.75 l26.815-0.017l8.271-25.509l8.302,25.499l26.815-0.017l-21.684,15.775l8.302,25.499l-21.704-15.75L277.997,467.478z"/></g></svg>