<svg xmlns="http://www.w3.org/2000/svg" xmlns:xlink="http://www.w3.org/1999/xlink" id="Layer_1" x="0" y="0" version="1.1" viewBox="0 0 512 512" xml:space="preserve" style="enable-background:new 0 0 512 512"><circle style="fill:#f0f0f0" cx="256" cy="256" r="256"/><path style="fill:#d80027" d="M256,0C145.929,0,52.094,69.472,15.923,166.957h480.155C459.906,69.472,366.071,0,256,0z"/><path d="M256,512c110.071,0,203.906-69.472,240.077-166.957H15.923C52.094,442.528,145.929,512,256,512z"/><path style="fill:#ff9811" d="M345.043,228.174h-66.783c0-12.294-9.967-22.261-22.261-22.261s-22.261,9.967-22.261,22.261h-66.783	c0,12.295,10.709,22.261,23.003,22.261h-0.742c0,12.295,9.966,22.261,22.261,22.261c0,12.295,9.966,22.261,22.261,22.261h44.522	c12.295,0,22.261-9.966,22.261-22.261c12.295,0,22.261-9.966,22.261-22.261h-0.741C334.335,250.435,345.043,240.469,345.043,228.174	z"/></svg>