<svg xmlns="http://www.w3.org/2000/svg" xmlns:xlink="http://www.w3.org/1999/xlink" id="Layer_1" x="0" y="0" version="1.1" viewBox="0 0 512 512" xml:space="preserve" style="enable-background:new 0 0 512 512"><path style="fill:#a2001d" d="M512,256c0,141.384-114.616,256-256,256S0,397.384,0,256S256,0,256,0S512,114.616,512,256z"/><path style="fill:#0052b4" d="M0,256C0,114.616,114.616,0,256,0s256,114.616,256,256"/><polygon style="fill:#f0f0f0" points="345.043 322.783 256 311.652 166.957 322.783 166.957 189.217 345.043 189.217"/><circle style="fill:#0052b4" cx="256" cy="267.13" r="44.522"/><circle style="fill:#a2001d" cx="256" cy="267.13" r="22.261"/><polygon style="fill:#6da544" points="222.609 211.478 289.391 211.478 256 244.87"/><rect style="fill:#ffda44" width="22.261" height="66.783" x="244.87" y="233.739"/><polygon style="fill:#6da544" points="291.617 293.843 220.381 293.843 166.957 322.783 345.043 322.783"/></svg>