<svg xmlns="http://www.w3.org/2000/svg" xmlns:xlink="http://www.w3.org/1999/xlink" id="Layer_1" x="0" y="0" version="1.1" viewBox="0 0 512 512" xml:space="preserve" style="enable-background:new 0 0 512 512"><circle style="fill:#f0f0f0" cx="256" cy="256" r="256"/><path style="fill:#ff9811" d="M256,0C154.506,0,66.81,59.065,25.402,144.696h461.195C445.19,59.065,357.493,0,256,0z"/><path style="fill:#6da544" d="M256,512c101.493,0,189.19-59.065,230.598-144.696H25.402C66.81,452.935,154.506,512,256,512z"/><circle style="fill:#0052b4" cx="256" cy="256" r="89.043"/><circle style="fill:#f0f0f0" cx="256" cy="256" r="55.652"/><polygon style="fill:#0052b4" points="256 187.326 273.169 226.264 315.473 221.663 290.337 256 315.473 290.337 273.169 285.736 256 324.674 238.831 285.736 196.527 290.336 221.663 256 196.527 221.663 238.831 226.264"/></svg>