<svg xmlns="http://www.w3.org/2000/svg" xmlns:xlink="http://www.w3.org/1999/xlink" id="Layer_1" x="0" y="0" version="1.1" viewBox="0 0 512 512" xml:space="preserve" style="enable-background:new 0 0 512 512"><circle style="fill:#f0f0f0" cx="256" cy="256" r="256"/><g><path style="fill:#d80027" d="M256,0C172.248,0,97.893,40.223,51.189,102.4h409.622C414.107,40.223,339.752,0,256,0z"/><path style="fill:#d80027" d="M256,512c83.752,0,158.107-40.223,204.811-102.4H51.189C97.893,471.777,172.248,512,256,512z"/><path style="fill:#d80027" d="M0,256c0,17.535,1.768,34.657,5.127,51.2h501.748C510.234,290.657,512,273.535,512,256 s-1.768-34.657-5.126-51.2H5.127C1.768,221.343,0,238.465,0,256z"/></g><path style="fill:#0052b4" d="M74.98,74.98c-99.974,99.974-99.974,262.065,0,362.04C116.293,395.707,156.026,355.974,256,256	L74.98,74.98z"/><polygon style="fill:#f0f0f0" points="103.61 189.217 120.185 240.233 173.831 240.233 130.433 271.765 147.007 322.783 103.61 291.252 60.211 322.783 76.789 271.765 33.391 240.233 87.033 240.233"/></svg>