<svg xmlns="http://www.w3.org/2000/svg" xmlns:xlink="http://www.w3.org/1999/xlink" id="Layer_1" x="0" y="0" version="1.1" viewBox="0 0 512 512" xml:space="preserve" style="enable-background:new 0 0 512 512"><path style="fill:#ffda44" d="M345.043,15.922C317.309,5.633,287.314,0,256,0c-31.314-0.001-61.31,5.633-89.043,15.922	l-22.261,240.077l22.261,240.077C194.689,506.368,224.685,512,256,512c31.313,0,61.31-5.632,89.043-15.924L367.303,256	L345.043,15.922z"/><path style="fill:#d80027" d="M512,256c0-110.07-69.472-203.907-166.957-240.077v480.156C442.528,459.905,511.999,366.072,512,256z"/><path style="fill:#0052b4" d="M0,255.999c0,110.073,69.472,203.906,166.955,240.079l0.001-480.154	C69.472,52.094,0,145.928,0,255.999z"/></svg>