<svg xmlns="http://www.w3.org/2000/svg" xmlns:xlink="http://www.w3.org/1999/xlink" id="Layer_1" x="0" y="0" version="1.1" viewBox="0 0 641.3 405.9" xml:space="preserve" style="enable-background:new 0 0 641.3 405.9"><style type="text/css">.st0{fill:#edeef7}.st1{fill:none;stroke:#c5c8ef}.st1,.st2,.st3,.st4{stroke-linejoin:round}.st2{fill:none;stroke:#c5c8ef;stroke-linecap:round}.st3,.st4{fill:#fff;stroke:#7c8bd8}.st4{fill:none}.st5{fill:#7c8bd8}.st6,.st7{opacity:.35;fill:#abb3ed;enable-background:new}.st7{fill:none;stroke:#abb3ed;stroke-miterlimit:10}.st8,.st9{stroke-linejoin:round}.st8{opacity:.35;fill:none;stroke:#abb3ed;stroke-width:2;stroke-linecap:round;enable-background:new}.st9{fill:#fff;stroke:#c5c8ef}.st10{fill:#e5eaf9}.st11{fill:#ffcbc2}.st12{fill:#ee5050}.st13{fill:#0948b3}.st14,.st15{fill:none;stroke:#1a3987;stroke-width:.75;stroke-miterlimit:10}.st15{stroke:#a52f2d}.st16{fill:#011e3b}.st17{fill:none;stroke:#e88872;stroke-width:.5;stroke-linejoin:round}.st18{fill:#28364c}.st19{fill:none;stroke:#28364c;stroke-width:.75;stroke-miterlimit:10}.st20,.st21{fill:#fff}.st21{stroke:#abb3ed;stroke-linejoin:round}.st22{fill:#abb3ed}.st23{fill:#ffe1cc}.st24{fill:none;stroke:#a5634c;stroke-width:.75;stroke-miterlimit:10}.st25{fill:#2d1006}.st26,.st27{fill:none;stroke:#6d221d;stroke-width:.75}.st26{stroke-linejoin:round}.st27{stroke-miterlimit:10}.st28{fill:#212237}.st29{fill:none;stroke:#212237;stroke-width:.5;stroke-linecap:round;stroke-linejoin:round}.st30{fill:#dcddef}.st31{fill:#f2f5f9}.st32{fill:#6d221d}.st33{fill:#f9bbaf}.st34{fill:#4a1a1a}.st35{fill:none;stroke-width:.75;stroke-miterlimit:10}.st35,.st36{stroke:#f7a794}.st36,.st37{fill:none;stroke-miterlimit:10}.st36{stroke-width:.5}.st37{stroke:#5565aa;stroke-width:.75}.st38{fill:#ccd2ed}.st39{fill:#b8c4e8}.st40{fill:none;stroke:#edeef7;stroke-miterlimit:10}.st41{fill:#f7958b}.st42{fill:none;stroke:#f7958b;stroke-width:.5;stroke-miterlimit:10}</style><metadata><sfw xmlns="http://ns.adobe.com/SaveForWeb/1.0/"><slices/><sliceSourceBounds width="641.3" height="405.8" x="0" y="0" bottomLeftOrigin="true"/></sfw></metadata><g id="Screen"><path d="M101.3,146.1c4.3,5.7,10,10.3,16.4,13.4l5-8.3c2.9,1.3,6,2.3,9.2,2.8l-0.4,9.7c7.1,1,14.4,0.2,21.1-2.1 l-2.4-9.4c3-1.1,5.9-2.6,8.4-4.5l6.6,7.1c5.7-4.4,10.3-10,13.4-16.4l-8.3-5c1.3-2.9,2.3-6,2.8-9.2l9.7,0.4c1-7.1,0.2-14.4-2.1-21.1 l-9.4,2.4c-1.1-3-2.6-5.9-4.5-8.5l7.2-6.6c-4.3-5.7-10-10.3-16.4-13.5l-5,8.3c-2.9-1.3-6-2.3-9.2-2.8l0.4-9.7 c-7.1-1-14.4-0.2-21.1,2.1l2.4,9.5c-3,1.1-5.9,2.6-8.5,4.5l-6.6-7.2c-5.7,4.3-10.3,10-13.4,16.4l8.3,5c-1.3,2.9-2.3,6-2.8,9.2 l-9.7-0.4c-1,7.1-0.2,14.3,2.1,21.1l9.4-2.4c1.1,3,2.6,5.8,4.5,8.4L101.3,146.1z M120.6,104.5c7.7-9.4,21.6-10.8,31-3 s10.8,21.6,3,31c-7.7,9.4-21.5,10.8-30.9,3.1C114.3,127.8,112.9,114,120.6,104.5C120.6,104.5,120.6,104.5,120.6,104.5z M126.4,109.3c5.1-6.2,14.2-7.1,20.4-2c6.2,5.1,7.1,14.2,2,20.4c-5.1,6.2-14.2,7.1-20.4,2c0,0,0,0,0,0 C122.3,124.6,121.4,115.5,126.4,109.3C126.4,109.3,126.4,109.3,126.4,109.3z" class="st0"/><path d="M340.4,65.8c0.7,4.5,1.9,8.8,3.6,13c1.7,4.2,3.9,8.1,6.5,11.8l10.5-6.2c2.4,3.2,5.3,6.1,8.5,8.6l-6.3,10.5 c7.3,5.3,15.8,8.8,24.7,10.3l3-11.9c4,0.5,8.1,0.5,12.1,0l3,11.9c8.9-1.4,17.4-4.9,24.7-10.2l-6.2-10.5c3.2-2.5,6.1-5.3,8.6-8.6 l10.5,6.3c5.3-7.3,8.8-15.8,10.3-24.7l-11.9-3c0.5-4,0.5-8.1,0-12.1l11.9-3c-0.7-4.5-1.9-8.8-3.6-13c-1.7-4.2-3.9-8.1-6.6-11.8 l-10.5,6.3c-2.4-3.2-5.3-6.1-8.5-8.5l6.3-10.5C423.8,5,415.3,1.5,406.4,0l-3,11.9c-4-0.5-8.1-0.5-12.1,0l-3-11.9 c-4.5,0.7-8.8,1.9-13,3.6c-4.2,1.7-8.1,3.9-11.8,6.6l6.3,10.5c-3.2,2.4-6.1,5.3-8.6,8.5L350.8,23c-5.3,7.3-8.8,15.8-10.3,24.7 l11.9,3c-0.5,4-0.5,8.1,0,12.1L340.4,65.8z M386.7,31.2c14.2-5.8,30.3,0.9,36.2,15.1c5.8,14.2-0.9,30.3-15.1,36.2 c-14.2,5.8-30.3-0.9-36.2-15.1c0,0,0,0,0,0C365.8,53.3,372.5,37.1,386.7,31.2C386.6,31.2,386.7,31.2,386.7,31.2L386.7,31.2z M390.3,40c9.3-3.8,20,0.6,23.8,9.9s-0.6,20-9.9,23.8c-9.3,3.8-20-0.6-23.8-9.9c0,0,0,0,0,0C376.5,54.4,381,43.8,390.3,40 C390.3,39.9,390.3,39.9,390.3,40L390.3,40z" class="st0"/><path d="M501.9,110.9c3.4,4.5,7.9,8.1,12.9,10.6l3.9-6.6c2.3,1,4.7,1.8,7.2,2.2l-0.3,7.6c5.6,0.8,11.3,0.2,16.6-1.7 l-1.8-7.4c2.4-0.9,4.6-2.1,6.7-3.6l5.2,5.6c2.2-1.7,4.3-3.7,6.1-5.8c1.8-2.2,3.3-4.6,4.5-7.1l-6.6-3.9c1-2.3,1.8-4.7,2.2-7.2 l7.7,0.3c0.8-5.6,0.2-11.3-1.7-16.6l-7.4,1.9c-0.9-2.4-2.1-4.6-3.6-6.7l5.7-5.2c-1.7-2.2-3.7-4.3-5.8-6.1c-2.2-1.8-4.6-3.3-7.1-4.5 l-3.9,6.6c-2.3-1-4.7-1.8-7.2-2.2l0.3-7.7c-5.6-0.7-11.3-0.2-16.6,1.7l1.9,7.4c-2.4,0.9-4.6,2.1-6.7,3.6l-5.1-5.7 c-4.5,3.4-8.1,7.9-10.6,12.9l6.6,3.9c-1,2.3-1.8,4.7-2.2,7.2l-7.7-0.3c-0.7,5.6-0.2,11.3,1.7,16.6l7.4-1.8c0.9,2.4,2.1,4.6,3.6,6.7 L501.9,110.9z M517.1,78.2c6.1-7.4,17-8.5,24.4-2.4c7.4,6.1,8.5,17,2.4,24.4c-6.1,7.4-17,8.5-24.4,2.4 C512.1,96.5,511,85.6,517.1,78.2z M521.7,82c4-4.9,11.1-5.6,16-1.6c4.9,4,5.6,11.1,1.6,16s-11.1,5.6-16,1.6c0,0,0,0,0,0 C518.4,94,517.7,86.8,521.7,82z" class="st0"/><path d="M190.2,57.1c0.8-1.7,1.4-3.5,1.7-5.3c0.4-1.8,0.5-3.7,0.4-5.6l-5.1-0.3c-0.1-1.7-0.4-3.3-1-4.9l4.6-2.2 c-1.3-3.5-3.4-6.7-6.1-9.2l-3.8,3.4c-1.2-1.1-2.6-2-4.1-2.8l1.7-4.8c-1.7-0.8-3.5-1.4-5.3-1.7c-1.8-0.4-3.7-0.5-5.5-0.5l-0.3,5 c-1.7,0.1-3.3,0.4-4.9,1l-2.2-4.6c-3.5,1.3-6.7,3.4-9.2,6.1l3.5,3.8c-1.1,1.2-2,2.6-2.8,4.1l-4.7-1.8c-0.8,1.7-1.4,3.5-1.7,5.3 c-0.4,1.8-0.5,3.7-0.4,5.5l5.1,0.3c0.1,1.7,0.4,3.3,1,4.9l-4.6,2.2c1.3,3.5,3.4,6.7,6.1,9.2l3.8-3.4c1.2,1.1,2.6,2,4.1,2.8 l-1.7,4.8c1.7,0.8,3.5,1.4,5.3,1.7c1.8,0.4,3.7,0.5,5.5,0.4l0.3-5c1.7-0.1,3.3-0.4,4.9-1l2.2,4.6c3.5-1.3,6.7-3.4,9.2-6.1l-3.4-3.8 c1.1-1.2,2.1-2.6,2.8-4.1L190.2,57.1z M166.4,58.4c-6.2-1.3-10.2-7.3-8.9-13.5c1.3-6.2,7.3-10.2,13.5-8.9c6.2,1.2,10.2,7.2,9,13.4 C178.7,55.6,172.7,59.6,166.4,58.4L166.4,58.4z" class="st0"/><path d="M590.2,149c1.1-1.3,2-2.7,2.8-4.2c0.8-1.5,1.3-3.1,1.7-4.7l-4.3-1.5c0.3-1.5,0.4-3,0.3-4.5l4.5-0.8 c-0.3-3.4-1.3-6.6-3.1-9.5l-4.1,2c-0.8-1.3-1.8-2.4-2.9-3.4l2.6-3.7c-1.3-1.1-2.7-2-4.2-2.8c-1.5-0.8-3.1-1.3-4.7-1.7l-1.5,4.3 c-1.5-0.3-3-0.4-4.5-0.3l-0.8-4.5c-3.4,0.3-6.6,1.3-9.5,3.1l2,4.1c-1.3,0.8-2.4,1.8-3.4,2.9l-3.7-2.6c-2.2,2.6-3.7,5.6-4.5,8.9 l4.3,1.5c-0.3,1.5-0.4,3-0.3,4.5l-4.5,0.8c0.3,3.4,1.3,6.6,3.1,9.5l4.1-2c0.8,1.3,1.8,2.4,2.9,3.4l-2.6,3.7 c2.6,2.2,5.6,3.7,8.9,4.5l1.5-4.3c1.5,0.3,3,0.4,4.5,0.4l0.8,4.5c3.4-0.3,6.6-1.3,9.5-3.1l-2-4.1c1.3-0.8,2.4-1.8,3.4-2.9 L590.2,149z M569.2,144.2c-5.1-2.6-7.1-8.8-4.5-13.9c2.6-5.1,8.8-7.1,13.9-4.5c5.1,2.6,7.1,8.8,4.5,13.9 C580.5,144.8,574.3,146.8,569.2,144.2C569.2,144.3,569.2,144.3,569.2,144.2L569.2,144.2z" class="st0"/><path d="M4.8,225.5h3.4c0.6,0,1.1,0.5,1.1,1.1v3.4c0,0.6-0.5,1.1-1.1,1.1H4.8c-0.6,0-1.1-0.5-1.1-1.1v-3.4 C3.7,226,4.2,225.5,4.8,225.5z" class="st0"/><path d="M325.9,8.4h3.4c0.6,0,1.1,0.5,1.1,1.1v3.4c0,0.6-0.5,1.1-1.1,1.1h-3.4c-0.6,0-1.1-0.5-1.1-1.1V9.5 C324.8,8.9,325.3,8.4,325.9,8.4z" class="st0"/><path d="M542.3,148.6h3.4c0.6,0,1.1,0.5,1.1,1.1v3.4c0,0.6-0.5,1.1-1.1,1.1h-3.4c-0.6,0-1.1-0.5-1.1-1.1v-3.4 C541.2,149.1,541.7,148.6,542.3,148.6z" class="st0"/><path d="M221.5,54.6h3.4c0.6,0,1.1,0.5,1.1,1.1v3.4c0,0.6-0.5,1.1-1.1,1.1h-3.4c-0.6,0-1.1-0.5-1.1-1.1v-3.4 C220.4,55.1,220.9,54.6,221.5,54.6z" class="st0"/><path d="M168.4,168.3c0,2.5-2.1,4.6-4.6,4.6c-2.5,0-4.6-2.1-4.6-4.6c0-2.5,2.1-4.6,4.6-4.6c0,0,0,0,0,0 C166.4,163.7,168.4,165.8,168.4,168.3z" class="st1"/><path d="M106.9,61.4c0,2.5-2.1,4.6-4.6,4.6c-2.5,0-4.6-2.1-4.6-4.6c0-2.5,2.1-4.6,4.6-4.6 C104.9,56.8,106.9,58.8,106.9,61.4C106.9,61.4,106.9,61.4,106.9,61.4z" class="st1"/><path d="M626.2,112.5c0,2.5-2.1,4.6-4.6,4.6s-4.6-2.1-4.6-4.6c0-2.5,2.1-4.6,4.6-4.6 C624.2,107.9,626.2,110,626.2,112.5C626.2,112.5,626.2,112.5,626.2,112.5z" class="st1"/><path d="M137.1,56.5c0,1.3-1.1,2.4-2.4,2.4c-1.3,0-2.4-1.1-2.4-2.4s1.1-2.4,2.4-2.4c0,0,0,0,0,0 C136,54.2,137.1,55.2,137.1,56.5z" class="st1"/><circle cx="18.4" cy="172.3" r="2.4" class="st1"/><path d="M241,47.8c0,1.3-1.1,2.4-2.4,2.4c-1.3,0-2.4-1.1-2.4-2.4c0-1.3,1.1-2.4,2.4-2.4c0,0,0,0,0,0 C239.9,45.4,241,46.4,241,47.8z" class="st1"/><circle cx="580.5" cy="81.6" r="2.4" class="st1"/><circle cx="531.6" cy="235.5" r="2.4" class="st1"/><line x1="61.5" x2="73.9" y1="101.1" y2="101.1" class="st1"/><line x1="44.2" x2="67.7" y1="95.1" y2="95.1" class="st1"/><line x1="270.4" x2="287.7" y1="21.4" y2="21.4" class="st1"/><line x1="286.6" x2="298.9" y1="27.5" y2="27.5" class="st1"/><line x1="625.7" x2="641.3" y1="155.7" y2="155.7" class="st1"/><line x1="264.9" x2="277.2" y1="70.4" y2="70.4" class="st1"/><line x1="66.7" x2="66.7" y1="135" y2="140" class="st2"/><line x1="69.2" x2="64.2" y1="137.5" y2="137.5" class="st2"/><line x1="477.7" x2="477.7" y1="56.5" y2="61.4" class="st2"/><line x1="480.2" x2="475.3" y1="58.9" y2="58.9" class="st2"/><line x1="309.8" x2="309.8" y1="52.3" y2="57.2" class="st2"/><line x1="312.3" x2="307.4" y1="54.8" y2="54.8" class="st2"/><line x1="636.9" x2="636.9" y1="245.2" y2="250.2" class="st2"/><line x1="639.4" x2="634.5" y1="247.7" y2="247.7" class="st2"/><rect width="308.5" height="205.7" x="178.9" y="70.2" class="st3"/><rect width="288.5" height="185.7" x="188.9" y="80.2" class="st4"/><path d="M290.7,173.1c0-23.5,19-42.5,42.5-42.5c23.5,0,42.5,19,42.5,42.5c0,9-2.8,17.8-8.2,25.1l0,0 c-6.1,9.1-21.8,19.5-21.8,25.6v7.1c0,1.4-1.1,2.6-2.5,2.6h-19.9c-1.4,0-2.5-1.1-2.5-2.6v-7.1c0-6.2-15.8-16.5-21.8-25.6l0,0 C293.5,190.9,290.7,182.1,290.7,173.1z" class="st3"/><path d="M338,232.7c-0.5-11-0.3-22.1,0.6-33.1c-3.6,0.4-7.2,0.4-10.8,0c0.8,11,1,22,0.5,33.1h-0.8 c0.4-11,0.2-22.1-0.6-33.1c-12.6-1.8-18.2-8.9-19.3-15.6c-0.6-3.9,0.8-7.9,3.2-9.3c1.6-0.9,3.5-1.1,5.2-0.5c3,0.9,5.9,3.4,7.6,6.9 c2,4,3.3,10.7,4,17.9c3.6,0.4,7.3,0.4,10.9,0c0.7-7.2,1.9-13.9,4-17.9c1.8-3.5,4.6-6.1,7.6-6.9c1.7-0.6,3.6-0.4,5.2,0.5 c2.5,1.5,3.8,5.4,3.2,9.3c-1,6.7-6.6,13.9-19.2,15.6c-0.8,11-1,22.1-0.6,33.1H338z M352.3,174.5c-0.6,0-1.3,0.1-1.9,0.3 c-2.8,0.8-5.5,3.2-7.2,6.5c-2,3.9-3.1,10.3-3.8,17.4c12.1-1.7,17.5-8.5,18.4-15c0.5-3.6-0.7-7.3-2.8-8.6 C354.2,174.7,353.3,174.5,352.3,174.5L352.3,174.5z M314,174.5c-0.9,0-1.9,0.2-2.7,0.7c-2.2,1.3-3.4,5-2.9,8.6 c1,6.4,6.4,13.2,18.4,15c-0.7-7.1-1.9-13.6-3.8-17.4c-1.7-3.3-4.4-5.7-7.2-6.5C315.3,174.6,314.7,174.5,314,174.5L314,174.5z" class="st5"/><path d="M368.6,175.6c-1.3,0-2.4-1.1-2.4-2.4c0,0,0,0,0,0c0-15.1-10.2-28.3-24.9-32c-1.3-0.4-2-1.7-1.7-3 c0.4-1.2,1.6-2,2.9-1.7c16.8,4.2,28.6,19.4,28.5,36.7C371,174.4,369.9,175.5,368.6,175.6C368.6,175.6,368.6,175.6,368.6,175.6z" class="st0"/><circle cx="334.8" cy="137.6" r="2.4" class="st0"/><path d="M346.7,226.8h-27v12.9c0,2.1,0.6,4.2,1.7,6l0,0c2.1,3.4,5.8,5.4,9.8,5.4h4c4,0,7.7-2,9.8-5.4l0,0 c1.1-1.8,1.7-3.9,1.7-6L346.7,226.8z" class="st3"/><path d="M345.6,247.2h-0.2l-25.6-2.2c-0.9-0.1-1.5-0.9-1.5-1.7c0,0,0-0.1,0-0.1c0.1-0.9,1-1.6,1.9-1.5l25.6,2.2 c0.9,0.1,1.5,0.8,1.5,1.7c0,0,0,0.1,0,0.1C347.2,246.5,346.5,247.2,345.6,247.2z" class="st3"/><path d="M346.7,235.8h-0.2l-27-2.3c-0.9-0.1-1.5-0.9-1.5-1.7c0,0,0-0.1,0-0.1c0.1-0.9,1-1.6,1.9-1.5l27,2.3 c0.9,0.1,1.5,0.8,1.5,1.7c0,0,0,0.1,0,0.1C348.2,235.1,347.5,235.7,346.7,235.8z" class="st3"/><path d="M346.7,241.6h-0.2l-27-2.3c-0.9-0.1-1.5-0.8-1.5-1.7c0,0,0-0.1,0-0.1c0.1-0.9,1-1.6,1.9-1.5l27,2.3 c0.9,0.1,1.5,0.8,1.5,1.7c0,0,0,0.1,0,0.1C348.2,240.9,347.5,241.5,346.7,241.6z" class="st3"/><line x1="333.2" x2="333.2" y1="109.5" y2="124.1" class="st4"/><line x1="378.5" x2="368.1" y1="128.3" y2="138.6" class="st4"/><line x1="288" x2="298.3" y1="128.1" y2="138.5" class="st4"/><line x1="308.8" x2="314.4" y1="114.3" y2="127.8" class="st4"/><line x1="357.7" x2="352.1" y1="114.4" y2="127.9" class="st4"/><line x1="392.3" x2="378.8" y1="149" y2="154.6" class="st4"/><line x1="274.1" x2="287.6" y1="148.9" y2="154.5" class="st4"/><rect width="18.8" height="15.1" x="205" y="125.9" class="st6"/><line x1="232.4" x2="245.4" y1="125.9" y2="125.9" class="st7"/><line x1="232.4" x2="258.6" y1="141" y2="141" class="st7"/><line x1="232.4" x2="258.6" y1="136.1" y2="136.1" class="st7"/><line x1="232.4" x2="258.6" y1="131.4" y2="131.4" class="st7"/><rect width="18.8" height="15.1" x="205" y="156" class="st6"/><line x1="232.4" x2="245.4" y1="156" y2="156" class="st7"/><line x1="232.4" x2="258.6" y1="171.1" y2="171.1" class="st7"/><line x1="232.4" x2="258.6" y1="166.3" y2="166.3" class="st7"/><line x1="232.4" x2="258.6" y1="161.5" y2="161.5" class="st7"/><rect width="18.8" height="15.1" x="205" y="186.1" class="st6"/><line x1="232.4" x2="245.4" y1="186.1" y2="186.1" class="st7"/><line x1="232.4" x2="258.6" y1="201.3" y2="201.3" class="st7"/><line x1="232.4" x2="258.6" y1="196.4" y2="196.4" class="st7"/><line x1="232.4" x2="258.6" y1="191.7" y2="191.7" class="st7"/><rect width="18.8" height="15.1" x="205" y="216.3" class="st6"/><line x1="232.4" x2="245.4" y1="216.3" y2="216.3" class="st7"/><line x1="232.4" x2="258.6" y1="231.4" y2="231.4" class="st7"/><line x1="232.4" x2="258.6" y1="226.5" y2="226.5" class="st7"/><line x1="232.4" x2="258.6" y1="221.8" y2="221.8" class="st7"/><rect width="18.8" height="15.1" x="407.7" y="125.9" class="st6"/><line x1="435.1" x2="448.1" y1="125.9" y2="125.9" class="st7"/><line x1="435.1" x2="461.4" y1="141" y2="141" class="st7"/><line x1="435.1" x2="461.4" y1="136.1" y2="136.1" class="st7"/><line x1="435.1" x2="461.4" y1="131.4" y2="131.4" class="st7"/><rect width="18.8" height="15.1" x="407.7" y="156" class="st6"/><line x1="435.1" x2="448.1" y1="156" y2="156" class="st7"/><line x1="435.1" x2="461.4" y1="171.1" y2="171.1" class="st7"/><line x1="435.1" x2="461.4" y1="166.3" y2="166.3" class="st7"/><line x1="435.1" x2="461.4" y1="161.5" y2="161.5" class="st7"/><rect width="18.8" height="15.1" x="407.7" y="186.1" class="st6"/><line x1="435.1" x2="448.1" y1="186.1" y2="186.1" class="st7"/><line x1="435.1" x2="461.4" y1="201.3" y2="201.3" class="st7"/><line x1="435.1" x2="461.4" y1="196.4" y2="196.4" class="st7"/><line x1="435.1" x2="461.4" y1="191.7" y2="191.7" class="st7"/><rect width="18.8" height="15.1" x="407.7" y="216.3" class="st6"/><line x1="435.1" x2="448.1" y1="216.3" y2="216.3" class="st7"/><line x1="435.1" x2="461.4" y1="231.4" y2="231.4" class="st7"/><line x1="435.1" x2="461.4" y1="226.5" y2="226.5" class="st7"/><line x1="435.1" x2="461.4" y1="221.8" y2="221.8" class="st7"/><line x1="460.1" x2="460.1" y1="70.2" y2="34.6" class="st4"/><circle cx="460.1" cy="31.8" r="2.8" class="st4"/><line x1="206.2" x2="206.2" y1="70.2" y2="34.6" class="st4"/><circle cx="206.2" cy="31.8" r="2.8" class="st4"/><line x1="291.4" x2="375" y1="89.8" y2="89.8" class="st8"/><line x1="267.4" x2="399" y1="98.9" y2="98.9" class="st8"/><path d="M547.5,334.6c-5.8-16.2-20.2-51.2-7-101.8c22.9,28.3,24.3,69.1,22,106" class="st9"/><path d="M540.4,232.8c0,0,4.9,64.4,14,105.1" class="st1"/><path d="M540.4,232.8c0,0-5.3,46,9.8,104.3" class="st1"/><path d="M557,337.4c0,0-6.7-80.8-16.6-104.6" class="st1"/><path d="M559.5,337.5c0,0,0.9-76-19.1-104.7" class="st1"/><path d="M535.7,342.4c-8.7-11.5-29.3-36.2-25.5-76.7c27.7,18.3,36.6,49.3,41,77.8" class="st9"/><path d="M510.1,265.7c0,0,9.5,48.4,29,76.6" class="st1"/><path d="M542.9,343.4c0,0-24.7-66.8-32.8-77.8" class="st1"/><path d="M547.5,343.4c0,0-14.7-60.2-37.4-77.8" class="st1"/><path d="M575.9,333.8c7.4-16.7,25.5-52.8,13.7-106.4c-27.2,28.7-31.2,71.4-30.6,110.1" class="st9"/><path d="M589.5,227.4c0,0-9.2,67.4-21.6,109.6" class="st1"/><path d="M589.5,227.4c0,0,3.3,48.5-16.8,108.9" class="st1"/><path d="M565,336.3c0,0,12.1-84.4,24.5-108.9" class="st1"/><path d="M562.2,336.3c0,0,3.3-79.7,27.3-108.9" class="st1"/><path d="M580.5,354c9.1-13.4,30.4-41.8,31.4-91.4c-27,20.1-38.4,57.1-45.5,91.5" class="st9"/><path d="M611.9,262.6c0,0-13.9,58.2-34.6,91.1" class="st1"/><path d="M573.8,354.8c0,0,29.6-79.5,38.1-92.1" class="st1"/><path d="M569.7,354.4c0,0,19.9-72.2,42.2-91.8" class="st1"/><path d="M595.9,333.7V349c0,33.9-13.8,55.7-13.8,55.7h-42.8c0,0-13.8-21.8-13.8-55.7v-15.3H595.9z" class="st10"/><path d="M37.4,333.4c-5.2-22.8-18.1-71.9-2.5-144.2c21.8,39.2,21.4,97.1,17.3,149.5" class="st9"/><path d="M34.9,189.2c0,0,2.1,91.2,9.3,148.6" class="st1"/><path d="M34.9,189.2c0,0-7.4,65.5,5.1,147.6" class="st1"/><path d="M46.9,336.9c0,0-3.1-114.4-12-147.8" class="st1"/><path d="M49.4,337c0,0,4.4-107.9-14.5-147.8" class="st1"/><path d="M26.5,342.1c-8.7-14.3-29.3-44.8-25.5-95c27.7,22.7,36.6,61.1,41,96.3" class="st9"/><path d="M1,247.1c0,0,9.5,59.9,29,94.9" class="st1"/><path d="M33.7,343.4c0,0-24.7-82.8-32.8-96.3" class="st1"/><path d="M38.3,343.4c0,0-14.7-74.5-37.4-96.3" class="st1"/><path d="M68.1,333.1c7-20,24.1-63.2,12.5-127.5c-25.9,34.2-29.4,85.5-28.7,132" class="st9"/><path d="M80.6,205.5c0,0-8.4,80.7-20,131.3" class="st1"/><path d="M80.6,205.5c0,0,3.4,58.1-15.5,130.5" class="st1"/><path d="M57.7,336c0,0,11.1-101.2,22.9-130.5" class="st1"/><path d="M55,336c0,0,2.7-95.6,25.5-130.5" class="st1"/><path d="M73.3,354c9.1-13.4,30.4-41.8,31.4-91.4c-27,20.1-38.4,57.1-45.5,91.5" class="st9"/><path d="M104.8,262.6c0,0-13.9,58.2-34.5,91.1" class="st1"/><path d="M66.7,354.8c0,0,29.5-79.5,38.1-92.1" class="st1"/><path d="M62.5,354.4c0,0,19.9-72.2,42.2-91.8" class="st1"/><path d="M88.7,333.7V349c0,33.9-13.8,55.7-13.8,55.7H32.1c0,0-13.8-21.8-13.8-55.7v-15.3H88.7z" class="st10"/><path d="M430.5,354.4c-3.5-11.8-12.5-37.5,2.3-70.4c16.8,24,14.5,50.2,9.6,75.1" class="st9"/><path d="M432.7,284c0,0-5.7,31.1,2,72.8" class="st1"/><path d="M435.8,357.2c0,0,3.1-55.6-3.1-73.1" class="st1"/><path d="M437.9,357.5c0,0,9-51.4-5.1-73.5" class="st1"/><path d="M418.8,362.2c-7-6.3-23.3-19.3-25.4-47.8c20.3,7.4,29.6,26.9,35.7,45.6" class="st9"/><path d="M393.4,314.5c0,0,7.1,24,28.6,48.2" class="st1"/><path d="M425.5,360.9c0,0-23.7-34.3-32-46.4" class="st1"/><path d="M427.1,360.2c0,0-16.4-34.5-33.6-45.8" class="st1"/><path d="M425.5,355.2c-5.6-8.2-21.8-32.8-16.8-59c18.8,14.1,26.3,41.9,27.8,60.9" class="st9"/><path d="M408.6,296.2c0,0,7,39.3,19.4,59.2" class="st1"/><path d="M430.6,356.5c0,0-16.8-52.5-22-60.2" class="st1"/><path d="M433.9,356.8c0,0-10.1-47.4-25.2-60.6" class="st1"/><path d="M452.3,354.8c4.8-10.6,16.4-33.5,8.5-67.5c-17.5,18.1-19.9,45.3-19.4,69.9" class="st9"/><path d="M460.8,287.2c0,0-8.3,39.4-14.5,68.8" class="st1"/><path d="M460.8,287.2c0,0,1.9,30.8-11,69.1" class="st1"/><path d="M443.4,356.3c0,0,3.6-46.2,17.3-69.1" class="st1"/><path d="M452.8,365.9c6.2-7.1,22-24.7,23.3-48.4c-18.3,10.6-26,30.3-30.8,48.5" class="st9"/><path d="M476.1,317.4c0,0-11.4,30-25.4,47.4" class="st1"/><path d="M447.3,364.8c0,0,17.1-36,28.8-47.4" class="st1"/><path d="M466.6,352.8V364c0,24.8-12,40.8-12,40.8h-37.3c0,0-12.1-16-12.1-40.7v-11.2H466.6z" class="st10"/><path d="M513.6,190.8c0,0,5.2,11.8,6.5,20.6s-11,33.8-11,33.8l-10.5-6.2c0,0,3.2-18.6,3.2-25.2s-6-15.8-6-15.8" class="st11"/><path d="M499.2,237.6c-1.4,4.1-7.2,15.3-6.6,16s2.7-3.3,3.1-2.6s-2.5,6.9-1.7,7.4c1,0.6,3.6-5.9,3.6-5.9 s-2.5,7.3-1.4,7.6c0.8,0.2,2.9-5.3,4-7.3c-0.9,2.3-1.9,6.2-1.1,6.5s2.3-3.5,3.6-6.3c-0.7,1.8-1.7,5.2-1,5.4s5.1-8.5,8.9-17" class="st11"/><path d="M492.2,290.3c-1.3,29.6,6.9,103.7,6.9,103.7l-9.1,5.8c0,0,28.1,1.3,29,0.5s-1-6.5-1-6.5s0.8-87.5,1.6-100.5 S493.5,260.7,492.2,290.3z" class="st11"/><path d="M511.9,400.2l6.7-3.7l-0.5-1.9l-8.8,5.6h-2.8l-9.8-4.8l-10.5,6.6c-0.7,0.4-0.9,1.3-0.5,2 c0.3,0.4,0.7,0.7,1.2,0.7l14.2,0l4.5-3.2h1.3v3.1h12.3v-4.4L511.9,400.2z" class="st12"/><path d="M454.6,295.4c-2,41.6-1.3,98.6-1.3,98.6l-9.1,5.9c0,0,28.1,1.2,29,0.4s-1-6.5-1-6.5s7.8-72.2,10.6-99.3 S456.6,253.8,454.6,295.4z" class="st11"/><path d="M466.2,400.2l6.7-3.7l-0.5-1.9l-8.7,5.6h-2.8l-9.8-4.8l-10.6,6.7c-0.7,0.4-0.9,1.3-0.5,2 c0.3,0.5,0.7,0.7,1.3,0.7l14.2-0.1l4.5-3.2h1.3v3.1l12.3-0.1v-4.4L466.2,400.2z" class="st12"/><path d="M505.6,227.4c2.4,1.7,7.8,9.4,10.1,16.9c5.3,17.8,5.4,57.1,5.4,57.1h-67.9c0,0,0.4-37.8,3-54.2 c1.2-7,3.7-13.8,7.6-19.7" class="st13"/><path d="M467.6,226.9c-2,1.7-5.5,8.1-6.4,15.3c-3.3,24.4-2.6,59.2-2.6,59.2" class="st14"/><path d="M489,165.9c20.3,1.3,27,26.7,27,26.7l-14.3,9.9" class="st12"/><line x1="507.8" x2="515" y1="194" y2="189.3" class="st15"/><path d="M452,178c0,0-15.1,11.7-17.6,11.7s-22.1-18.2-22.1-18.2l-10.3,12c0,0,20.6,28.2,31.7,28.2 c14.7,0,30.3-16.1,30.3-16.1" class="st11"/><path d="M474.1,165.9c0,0,2.4,1.8,6.9,1.2c2.8-0.3,5.5-0.8,8.3-1.5c0,0.1,18.3,8.5,18.9,19.1 c0.7,11.8,0.6,18.8-2.5,42.8h-41.8c0,0-6.5-29.3-6.5-40.5S474.1,165.9,474.1,165.9z" class="st12"/><path d="M474.1,165.9c-4-0.1-8,0.9-11.5,2.7c-6.2,3.7-11.9,8.2-16.9,13.4l12.2,21.5l12.8-9" class="st12"/><path d="M508.4,197.8c0.2-5.6-0.2-11.1-1.2-16.6" class="st15"/><line x1="448.7" x2="461.2" y1="179" y2="201.7" class="st15"/><line x1="459.1" x2="469.8" y1="203.2" y2="195.6" class="st15"/><path d="M419.9,178.4c0,0-17.3-16-18.4-15.6s2,3.4,1.1,3.6s-7.8-7.1-8.8-6.5c-1.3,0.9,4.6,6.9,4.6,6.9 s-1.6-1.1-2.5,0.1c-0.6,0.8,1.2,3.2,1.2,3.2s-1.8-1.2-2.5-0.4s1,3.3,1,3.3s-1.3-1-1.7-0.1c-0.7,1.4,7.9,11.4,15.8,20.2" class="st11"/><path d="M488.2,155.1l1.5,11.6c0,0-7.6,7.8-15.6-0.8l-0.5-6.5L488.2,155.1z" class="st11"/><path d="M475.4,139.9c0,0-10.9,12.4-6.9,17.5c2.1,2.7,11,5.9,14.3,3.9c2.4-1.5,6.9-12,5.9-14 C484.8,139.4,475.4,139.9,475.4,139.9z" class="st11"/><path d="M475.9,142.1c-0.7,7.2,1.5,10.9,1.5,10.9s-4.8,15.1-3.7,16.5s16.4,3.7,23.9,0.5c0,0,1.2-22.8-5.7-28.6 c-6.5-5.5-15-5-19.6-2.1c0.4,1,1.1,1.7,2.1,2.1l1.7,0.8" class="st16"/><path d="M475.9,151.2c1.3-1.7,2.4-1.4,3-0.5c0.8,1.2-0.8,3.8-1.5,4.3c-1.5,0.9-2.7,0.8-2.8-0.4" class="st11"/><path d="M473.7,160.5c0.9,0,1.7-0.5,2.1-1.3" class="st17"/><path d="M472.6,146.9c-0.5,0.4-0.9,1.1-0.6,1.6c0.1,0.1,0.2,0.2,0.4,0.2C473.3,148.6,473.5,146.1,472.6,146.9z" class="st18"/><path d="M472.7,145c0.9,0.3,1.6,0.9,2.1,1.6" class="st19"/><path d="M471.3,152.5l-2.3-1.2c0,0-1.5,2.8-0.4,3.4S471.3,152.5,471.3,152.5z" class="st20"/><path d="M488.1,139.3c-1-0.3-1.6-1.2-1.6-2.2c0.1-1,0.7-1.9,1.6-2.4c0.9-0.4,1.9-0.5,2.9-0.2c0.4,0.1,0.7,0.3,1,0.5 c1.2,0.9,1.2,2.9,0.3,4.2c-0.3,0.5-0.9,0.9-1.5,1.1c-0.6,0.2-1.3-0.1-1.6-0.7" class="st16"/><path d="M332,371.8c-18.6-5.6-30.9-12-41-22.1c-10.8-10.7-14.6-21.2-17.5-35.8c-4.1-20.4-8.5-52.8-30.5-60.6 c-20.5-7.2-38.7,9.1-49.2,25.8c-13.4,21.5-17.5,43-17.5,68.3c0,20.4,5.2,57.9,69.8,57.9h76.8C365.3,405.4,358.7,379.9,332,371.8z" class="st21"/><path d="M326.3,370.5c-3.8-7.8-19.9-5.5-37.4-23.7c-10.1-10.6-14.3-19.7-17.1-33.5c-2.4-11.6-11.5-50.5-27.6-52 c-6.5-0.6-13.1,0.2-18.8,3.3c-7.9,4.4-14.1,11.5-18.4,19.4s-7,16.6-9.2,25.4c-3,12.2-5.1,20.8-3.6,33.2 c2.6,21.1,15.9,39.8,36.5,44.7c20.8,5,39.6,3.3,64.2,3C304.3,390.2,334.2,386.6,326.3,370.5z" class="st0"/><path d="M218.9,268.6c-4.1,3.6-7.7,7.7-10.7,12.2c-3.3,5-6,10.3-8.2,15.9c-2.3,5.8-4.1,11.8-5.4,18 c-1.2,6.2-1.9,12.4-1.9,18.7c0,6.1,0.7,12.2,2.1,18.1c1.3,5.6,3.5,11,6.5,16c3,4.9,6.9,9.1,11.6,12.5c6.1,4.4,13.3,7,20.5,8.8 c9,2.1,18.3,3.2,27.5,3.3c4.7,0.1,9.3,0,14-0.1s9.1-0.4,13.6-0.8c2.1-0.2,4.2-0.4,6.4-0.5c0.4,0,0.4-0.7,0-0.6 c-4.4,0.2-8.8,0.3-13.1,0.5c-4.5,0.2-9.1,0.3-13.6,0.4c-9.2,0.2-18.5-0.5-27.6-1.9c-8-1.4-16.2-3.6-23.2-7.7 c-4.9-2.8-9.2-6.6-12.6-11.1c-3.4-4.5-5.9-9.6-7.6-15c-1.8-5.7-2.8-11.5-3.1-17.4c-0.3-6.2,0-12.3,0.9-18.4 c0.9-6.2,2.4-12.2,4.4-18.1c1.9-5.7,4.4-11.2,7.4-16.4c2.7-4.8,6.1-9.2,9.9-13.2c0.9-0.9,1.8-1.8,2.7-2.6 C219.6,268.9,219.2,268.5,218.9,268.6L218.9,268.6z" class="st22"/><path d="M334.2,374.5l26.2,19.5l4.9,7.5l28.1-19.2c0.7-0.5,0.9-1.4,0.4-2.1l0,0c-0.4-0.5-1-0.7-1.6-0.6l-16,2.6 l-26-21.4" class="st11"/><path d="M395.7,380.5c-0.9-0.7-2.1-1.4-2.8-1.2l-16.6,3.1c-5.2,7.7-15.9,11.7-15.9,11.7l4.9,10.8 c0.2,0.3,0.6,0.4,1,0.2c0,0,0,0,0,0l31.4-21.2C398.2,383.4,395.7,380.5,395.7,380.5z" class="st23"/><path d="M379.4,381c-0.1,1.4,0,2.9,0.2,4.3" class="st24"/><path d="M381.7,380.9c-0.1,1.2,0,2.4,0.3,3.6" class="st24"/><path d="M383.5,380.7c0,1.1,0.1,2.2,0.2,3.3" class="st24"/><line x1="364.4" x2="396.5" y1="403.2" y2="381.4" class="st24"/><path d="M362.1,397.9c0,0,7.7-4.9,11.4-0.8" class="st24"/><path d="M389.5,379.9c-0.1,2,0.1,4,0.4,6" class="st24"/><path d="M296.3,365.5l11.2,27.3l-0.1,9l34-0.2c0.8,0,1.5-0.7,1.5-1.5c0,0,0,0,0,0l0,0c0-0.6-0.4-1.2-1-1.4l-14.6-6.8 l-9.9-28.7" class="st11"/><path d="M344.4,401.2c-0.2-1-0.8-1.9-1.6-2.6l-15.5-6.7c-8.6,3.5-19.7,0.8-19.7,0.8l-2,11.7c0,0.4,0.3,0.7,0.7,0.7 c0,0,0,0,0,0h37.9C344.9,405.2,344.4,401.2,344.4,401.2z" class="st23"/><path d="M330.6,392.6c-0.9,1.1-1.6,2.4-2.2,3.7" class="st24"/><path d="M332.5,393.8c-0.7,1-1.3,2-1.8,3.1" class="st24"/><path d="M334.2,394.6c-0.6,0.9-1.2,1.9-1.7,2.9" class="st24"/><line x1="305.8" x2="344.5" y1="402.6" y2="402.4" class="st24"/><path d="M306.8,396.9c0,0,9.1,0.2,9.9,5.7" class="st24"/><path d="M339.6,397.2c-1.2,1.6-2.2,3.4-3,5.2" class="st24"/><path d="M247.8,251.2c0,0,7.4,11.7,4.2,16.7c-1.6,2.6-7.8,4.4-11,2.9c-2.3-1.1-7.4-10.3-6.7-12.2 C237.2,251,247.8,251.2,247.8,251.2z" class="st11"/><path d="M233.8,267.6l-0.7,9.1c0,0,5.8,14.4,16.2,1.4l-0.5-10L233.8,267.6z" class="st11"/><path d="M230.6,264.9c-1.1-2.6-2-4-2.4-7.1c-0.4-1.8,0.6-3.6,2.2-4.3c0,0-0.5,0.4,1-2.5s6-2.6,8.8-3 c3.7-0.6,9.1-3.8,11.2-2.4c0.9,0.6,0.9,6.3-2,7.9c-1.7,0.9-4.5,0.4-6.5,0.7c-3.7,0.6-4.5,1.4-5,3.7c-0.2,1.3-2.7,1.1-1.3,3.7 c0.2,0.3,0.3,0.7,0.3,1.1l-1.4,1c-1.9,1.3,2.2,4.5,1.9,6.1c-0.1,0.8-1.8,1.2-3.2,0.5S231.8,267.8,230.6,264.9z" class="st25"/><path d="M236.5,263.9c-1.7-1.7-2.8-1.3-3.4-0.2c-0.7,1.4,1.3,4.1,2.1,4.5c1.7,0.8,3,0.6,3-0.8" class="st11"/><path d="M249,270.8c-5.6,1.2-8.5-0.4-8.5-0.4" class="st26"/><path d="M247.1,258.2c0,0,2.7,2.9,2.6,3.8s-2.2,1.4-2.2,1.4" class="st27"/><path d="M250.8,263.8l-5.7,1.8c1,1.6,3,2.3,4.7,1.6C252,266.4,250.8,263.8,250.8,263.8z" class="st20"/><path d="M248.7,257l0.1,0.4c0.1,0.2,0.1,0.3,0.2,0.5c0.1,0.1,0.1,0.1,0.2,0.2c0.1,0,0.2,0,0.3,0 c0.1-0.1,0.2-0.1,0.2-0.2v-0.1c0-0.1,0-0.1,0-0.2c0-0.1-0.1-0.2-0.2-0.4l-0.2-0.3c-0.1-0.1-0.3-0.2-0.4-0.1 C248.7,256.7,248.6,256.9,248.7,257L248.7,257z" class="st28"/><path d="M247.2,255.7c0.4-0.8,1.3-1.1,2.1-0.7c0,0,0.1,0,0.1,0" class="st29"/><path d="M242.2,259.8l0.1,0.4l0.1,0.2c0,0.1,0.1,0.2,0.1,0.3c0,0.1,0.1,0.2,0.2,0.2c0.1,0,0.2,0,0.3,0 c0.1,0,0.1-0.1,0.2-0.2c0-0.1,0-0.2,0-0.3c-0.1-0.2-0.1-0.3-0.2-0.5s-0.1-0.2-0.2-0.4c-0.1-0.1-0.3-0.2-0.4-0.1 C242.2,259.4,242.2,259.6,242.2,259.8L242.2,259.8z" class="st28"/><path d="M242.8,257.2c0,0-1.5-0.2-2.7,1.7" class="st29"/><path d="M276.1,296.4c0,0,8.9,17.1,11.5,17.5c3.1,0.4,27.7-17.8,27.7-17.8l9.9,12c0,0-23,27.9-38.5,27.9 s-29.9-27.9-29.9-27.9" class="st11"/><path d="M233.1,276.7c0,0,2.2,4.1,8.9,3.8c5.1-0.2,7.3-2.3,7.3-2.3s15.1,3.9,18.1,23.8c2.8,18.5,6.2,50.2,6.2,50.2 l-57.4,3.9c-0.8-15-0.5-30,0.7-45C218.5,292.9,233.1,276.7,233.1,276.7z" class="st23"/><path d="M231.8,339.2l30.9,0.4v1.9l-32.6-0.5l0,0C230,340.1,230.8,339.3,231.8,339.2z" class="st30"/><path d="M300.3,342.1l-43.4-0.6l8.7-29c0.4-1.4,1.7-2.4,3.2-2.5l39.2,0.5c0.8,0.1,1.3,0.7,1.3,1.5 c0,0.1,0,0.2-0.1,0.4L300.3,342.1z" class="st30"/><path d="M302.2,342.1l-43.4-0.6l8.7-29c0.4-1.4,1.7-2.4,3.2-2.5l39.2,0.5c0.8,0.1,1.3,0.7,1.3,1.5 c0,0.1,0,0.2-0.1,0.4L302.2,342.1z" class="st31"/><path d="M289.7,324.8c-0.5,1.5-1.8,2.5-3.4,2.4c-1.6,0-2.7-1.1-2.4-2.5c0.5-1.5,1.9-2.5,3.4-2.4 C288.8,322.3,289.9,323.4,289.7,324.8z" class="st30"/><path d="M249.3,278.1c5.7-0.4,13.1,1,17.1,3.7c10.7,7,15.2,21.9,15.2,21.9l-14.8,3.8" class="st23"/><path d="M228,310.6c0,0-4.3,15.2-3.3,18.6c0.8,2.5,22.7,5.6,22.7,5.6l1.1,14.6c0,0-38.8,2.5-44.4-4.5 c-7.7-9.6,1.1-38.7,1.1-38.7" class="st11"/><path d="M242.8,334.6c3.2,0.1,20.3,0.9,20.2,1.8s-4.9,1.4-4.7,1.9c0.3,0.6,4,1,6.1,0.9c1.9,0,4.9,0.3,5,1.1 c0.2,1.5-10.1,1.5-10.1,1.5s11.1-2,11.4-0.7c0.4,1.8-11.4,3.5-11.7,4c0,0,9.8-4.3,10.2-2.9s-8.4,5.4-11.2,5.6 c2.3-0.6,8.9-5.2,9.1-3.9s-5.7,4-6.6,4.2c-5.1,1.1-10.4,1.5-15.7,1.2" class="st11"/><path d="M268.3,341c-1.3,0.3-2.6,0.5-4,0.6c-0.7,0.1-1.3,0.1-2,0.1c-0.7,0-1.3,0-2-0.1c1.3-0.2,2.6-0.4,4-0.5 C265.7,341.1,267,341,268.3,341z" class="st32"/><path d="M267.4,342.9c-1.3,0.6-2.7,1-4.2,1.3c-0.7,0.2-1.4,0.3-2.1,0.4c-0.7,0.1-1.5,0.1-2.2,0.1 C261.7,344.1,264.5,343.4,267.4,342.9z" class="st32"/><path d="M265.8,344.9c-1.2,0.6-2.4,1-3.6,1.4c-0.6,0.2-1.2,0.3-1.9,0.4c-0.6,0.1-1.3,0.2-1.9,0.2 c1.2-0.4,2.5-0.8,3.7-1.1S264.5,345.1,265.8,344.9z" class="st32"/><path d="M233.1,276.7c0,0-11.6,0.8-16,4.1c-11.8,8.9-14.6,26.3-14.6,26.3l26,6.8l4.7-14.3" class="st23"/><path d="M227.4,313.9c0.9-4.1,2-8.1,3.6-12" class="st24"/><path d="M268.2,307c-1-5.4-2.4-10.8-4.3-16" class="st24"/><line x1="203.4" x2="228.3" y1="303" y2="310.4" class="st24"/><line x1="280.4" x2="267.5" y1="300.1" y2="303.6" class="st24"/><path d="M230.6,276.9c0,0,3.1,6.1,12.2,5.5c9.1-0.6,9.5-4.3,9.5-4.3" class="st24"/><path d="M308.7,301.1c0,0,17.1-13.3,18-13s-1.5,2.8-0.8,2.9s6.2-5.5,7-5c1.1,0.7-4.5,6-4.5,6s6.5-5.5,7.2-4.6 c0.5,0.6-5.8,6.7-5.8,6.7s6.4-4.7,7-4.1s-5.1,6-5.1,6s4.5-3.9,5.2-3.3s-8.8,12.8-17,21" class="st11"/><path d="M324.8,291.8c-0.8,1.9-1.7,3.7-2.8,5.5" class="st26"/><path d="M324,298.7c1.8-1.9,4.3-2.2,6.5-2.1" class="st26"/><path d="M241.2,378.1c0,0-1.6,9.3,7.9,8.7c23-1.5,59.6-28.9,59.6-28.9l44.5,34.4l18.3-19.5c0,0-30.1-25.1-39-31.9 c-3.7-2.8-11.3-9.2-19.9-8.7s-57,19.5-57,19.5" class="st12"/><path d="M248.8,381.8c19.8-1.3,49.7-22.9,57.6-27.7c1.2-0.7,2.7-0.6,3.8,0.2l45.4,35.5" class="st15"/><path d="M218.2,355.9c0,0-3.9,34,24.4,32.1c19.9-1.3,45-29.7,45-29.7l15.4,34.9l26.2-7.8c0,0-12.9-32.4-17.3-43.3 c-3.8-9.4-10.5-16.7-17.3-17.6s-13.9,2.2-22.4,7.1c-6.8,4-28,22.6-28,22.6" class="st12"/><path d="M225.7,355.4c0,0-1.7,28.1,18.6,26.7c12.1-0.8,36-24.9,42.7-30.7c0.7-0.6,1.8-0.6,2.5,0.2 c0.1,0.1,0.2,0.3,0.3,0.5l17.5,39.8" class="st15"/><path d="M225.9,362.4c0,0,8-1,8.6-7.6" class="st15"/><line x1="300.9" x2="327.2" y1="388.2" y2="380.3" class="st15"/><line x1="348.9" x2="367.3" y1="389" y2="369.3" class="st15"/><path d="M129.5,149.4c0-0.4,0.6-0.7,1-0.6c0.6,0.1,1.1,0.5,1.4,1.1c0.2,0.6,0.4,1.2,0.3,1.8c0,0.6-0.1,1.1-0.3,1.7 c-0.5,0.9-1.6,1.3-2.6,0.9" class="st33"/><path d="M129,141.3c0,0,3.6,13.6,1.6,16.4c-2.9,4.2-9.9,4.5-12.9,2.6c-2.5-1.6-4.5-10.3-4.5-12.5 C113.2,141.6,125.8,138.1,129,141.3z" class="st11"/><path d="M110.9,157.3l-1.4,11.9c3,3,7,4.7,11.2,4.8c6.8,0,6.8-4.5,6.8-4.5l-1.2-10.3l-10.4-10.9L110.9,157.3" class="st11"/><path d="M117.2,147.4c0-0.8,0-1.6,0-2.3c0-0.6-0.1-1.3-0.2-1.9c3.3,0.7,6.7,0.9,10.1,0.7c1.1,0,2.2-0.3,3.1-0.8 c0.8-0.5,0.6-8.3-9.2-8.7c-1.9-0.2-3.8,0.1-5.5,0.9c-1.7,0.9-4.2,2.6-4.3,4.5c-2.4,0.8-5,5.6-3.6,10.7c0.8,2.9,1.3,5.8,3.4,6.9 c2.7-1.1,4.5-4.1,5-4.8C116.9,151,117.3,149.2,117.2,147.4z" class="st34"/><path d="M126.4,161c0,0-4.7,0.9-7.9-0.8c-1.7-1-2.9-2.7-3.5-4.5" class="st35"/><path d="M116.6,151.2c-0.4-0.6-1.1-1-1.8-1.1c-0.6,0.1-1.1,0.4-1.4,0.8c-1.8,2,0.2,5.8,2.9,5.4c1-0.1,0.7-1.5,0.7-1.5" class="st11"/><path d="M126.7,148.4c0,0,2.1,3.2,1.9,4.1s-2.3,1-2.3,1" class="st36"/><path d="M128.6,154.6l-5.8,0.8c0.7,1.7,2.5,2.7,4.2,2.3C129.3,157.3,128.6,154.6,128.6,154.6z" class="st20"/><path d="M128.4,147.6c0,0.1,0,0.3,0.1,0.4c0,0.1,0.1,0.3,0.1,0.4c0,0.1,0.1,0.2,0.2,0.2c0.1,0,0.2,0,0.3,0 c0.2-0.1,0.3-0.3,0.3-0.5c0-0.1-0.1-0.3-0.1-0.4c0-0.1,0-0.1-0.1-0.2l-0.1-0.2c0-0.1-0.1-0.1-0.2-0.2c-0.1,0-0.1,0-0.2,0 c-0.1,0-0.1,0.1-0.2,0.1v0.1C128.4,147.4,128.4,147.5,128.4,147.6L128.4,147.6z" class="st28"/><path d="M127.2,146.1c0.5-0.7,1.4-0.8,2.1-0.3c0,0,0,0,0.1,0.1" class="st29"/><path d="M121.8,149.1l0.1,0.5c0,0.1,0,0.3,0.1,0.4c0,0.1,0.1,0.2,0.2,0.2c0.1,0,0.2,0,0.3,0c0.1,0,0.2-0.1,0.2-0.2 v-0.1c0-0.1,0-0.1,0-0.2c0-0.1-0.1-0.2-0.1-0.4l-0.1-0.4c0-0.1-0.1-0.2-0.2-0.2c-0.1,0-0.1,0-0.2,0c-0.1,0-0.1,0-0.2,0.1 C121.8,148.9,121.7,149,121.8,149.1L121.8,149.1z" class="st28"/><path d="M122.7,146.8c0,0-1.4-0.5-2.9,1.2" class="st29"/><path d="M131.7,365.5l2.8,27.6l-0.2,8.7l34-0.2c0.8,0,1.5-0.7,1.5-1.5c0,0,0,0,0,0l0,0c0-0.6-0.4-1.2-1-1.4l-14.7-6.8 l-1.4-28.7" class="st11"/><path d="M171.2,401.2c-0.2-1-0.8-1.9-1.6-2.6l-15.6-6.7c-8.6,3.5-19.7,0.8-19.7,0.8l-2,11.7c0,0.4,0.3,0.7,0.7,0.7 c0,0,0,0,0,0h37.9C171.8,405.2,171.2,401.2,171.2,401.2z" class="st10"/><path d="M157.4,392.6c-0.9,1.1-1.6,2.4-2.2,3.7" class="st37"/><path d="M159.4,393.8c-0.7,1-1.3,2-1.8,3.1" class="st37"/><path d="M161,394.6c-0.6,0.9-1.2,1.9-1.7,2.9" class="st37"/><line x1="132.6" x2="171.4" y1="402.6" y2="402.4" class="st37"/><path d="M133.7,396.9c0,0,9.1,0.2,9.9,5.7" class="st37"/><path d="M166.4,397.2c-1.2,1.6-2.2,3.4-3,5.2" class="st37"/><path d="M147.6,247c5.8,42,11.1,141.3,11.1,141.3h-29.3c0,0-6-62-11.2-106.9c-12.9-21.3-11.9-44.4-13.3-47.5" class="st13"/><path d="M133.4,388.3c0,0-7.2-68.5-12.4-113.4" class="st14"/><path d="M84.7,365.5l-1.2,27.6l-0.2,8.7l34-0.2c0.8,0,1.5-0.7,1.5-1.5l0,0c0-0.6-0.4-1.2-1-1.4l-14.7-6.8l2.6-28.7" class="st11"/><path d="M120.2,401.2c-0.2-1-0.8-1.9-1.6-2.6l-15.6-6.7c-8.6,3.5-19.7,0.8-19.7,0.8l-2,11.7c0,0.4,0.3,0.7,0.7,0.7h0 h37.9C120.7,405.2,120.2,401.2,120.2,401.2z" class="st10"/><path d="M106.4,392.6c-0.9,1.1-1.6,2.4-2.2,3.7" class="st37"/><path d="M108.3,393.8c-0.7,1-1.3,2-1.8,3.1" class="st37"/><path d="M110,394.6c-0.6,0.9-1.2,1.9-1.7,2.9" class="st37"/><line x1="81.6" x2="120.4" y1="402.6" y2="402.4" class="st37"/><path d="M82.6,396.9c0,0,9.1,0.2,9.9,5.7" class="st37"/><path d="M115.4,397.2c-1.2,1.6-2.2,3.4-3,5.2" class="st37"/><path d="M85.6,243.1c-0.9,10.9-0.6,21.9,0.7,32.8c-2.5,50.6-6,112.3-6,112.3h29.3c0,0,14.1-112,14.8-146" class="st13"/><path d="M90.6,243.1c-0.9,10.9-0.6,21.9,0.7,32.8c-2.5,50.6-6,112.3-6,112.3" class="st14"/><path d="M120.1,297.3c0,0,4.1-35.1,4.4-48" class="st14"/><line x1="80.7" x2="110.3" y1="382.5" y2="382.5" class="st14"/><line x1="128.9" x2="158.4" y1="382.4" y2="382.4" class="st14"/><path d="M90.2,263.5c0,0,8.4,0.6,13.1-11.3" class="st14"/><path d="M123.2,263.5c0,0,2.9-0.8,3.2-1.8s1.1-11.8,1.1-11.8" class="st14"/><path d="M138.2,252.2c0.6,6,5.4,10.7,11.4,11.3" class="st14"/><path d="M154.7,190.7c0,0,6.8,9.5,9,9.9s21.1-20.7,21.1-20.7l11.5,8.9c0,0-17.2,34.7-33.3,35.6 c-13.9,0.8-27.4-20.9-27.4-20.9" class="st11"/><path d="M110,165.5c0,0,1.9,2.9,9.8,3.7c5.9,0.6,7.4-2.2,7.4-2.2s14.3,7.6,18.6,39.2s4.7,48.1,4.7,48.1H83.1 c0,0-0.2-24,1.7-44.7C86.9,188.4,91.4,170.4,110,165.5z" class="st12"/><polygon points="131.8 260.5 100.8 254.6 99.8 253.6 110.9 207.7 143.9 215.7 144.9 216.7" class="st0"/><polygon points="131.8 260.5 100.8 254.6 99.8 253.6 110.9 207.7 111.9 208.7" class="st38"/><rect width="47.2" height="33.9" x="99.3" y="218.7" class="st39" transform="matrix(0.2348 -0.972 0.972 0.2348 -135.0393 299.721)"/><path d="M134.1,263.5l-32.9-8c0,0,7.1-29.9,8.3-34.5c0,0,2.1-5.3,6-7.2c2.4-1.2,5-1.7,7.7-1.5l22,5.3L134.1,263.5z" class="st20"/><line x1="130.9" x2="106.3" y1="258.6" y2="252.9" class="st40"/><line x1="131.6" x2="107" y1="255.9" y2="250.2" class="st40"/><line x1="132.2" x2="107.6" y1="253.2" y2="247.5" class="st40"/><line x1="132.9" x2="108.3" y1="250.5" y2="244.8" class="st40"/><line x1="133.6" x2="109" y1="247.8" y2="242.2" class="st40"/><line x1="134.2" x2="109.6" y1="245.2" y2="239.5" class="st40"/><line x1="134.9" x2="110.3" y1="242.5" y2="236.8" class="st40"/><line x1="135.6" x2="111" y1="239.8" y2="234.1" class="st40"/><line x1="136.2" x2="111.6" y1="237.1" y2="231.4" class="st40"/><line x1="136.9" x2="112.3" y1="234.4" y2="228.7" class="st40"/><line x1="137.6" x2="113" y1="231.7" y2="226.1" class="st40"/><line x1="138.2" x2="113.6" y1="229.1" y2="223.4" class="st40"/><line x1="138.9" x2="114.3" y1="226.4" y2="220.7" class="st40"/><line x1="139.6" x2="115" y1="223.7" y2="218" class="st40"/><line x1="135.7" x2="122.3" y1="218.6" y2="215.5" class="st40"/><path d="M115.5,213.8c-3.9,1.9-6,7.2-6,7.2s4.9-5,9.8-4.7c0.1-2.6,3.9-4.1,3.9-4.1 C120.6,212.1,117.9,212.6,115.5,213.8z" class="st0"/><path d="M127.1,166.9c7,0.6,14.7,3.3,18.7,8.3c5.2,6.6,9.8,13.7,13.9,21l-18.9,13.3L127.1,166.9z" class="st12"/><path d="M145.8,206c-1.1-8.9-3.5-20.2-3.5-20.2" class="st15"/><line x1="145.2" x2="157.9" y1="201.6" y2="192.8" class="st15"/><path d="M94.7,207.9c0,0-6.6,14.4-6.1,17.9c0.4,2.6,21.6,9,21.6,9l-1,14.6c0,0-38.7-3.3-43.2-11.1 c-6.2-10.6,6.8-38.1,6.8-38.1" class="st11"/><path d="M105.7,233.9c3.2,0.6,19.9,4,19.7,4.8s-5.1,0.6-5,1.1c0.2,0.7,3.8,1.5,5.9,1.8c1.9,0.3,4.8,1,4.8,1.8 c0,1.6-10.2-0.1-10.2-0.1s11.3-0.3,11.4,1c0.2,1.9-11.8,1.8-12.2,2.2c0,0,10.4-2.8,10.5-1.4s-9.1,4.1-11.9,3.9 c2.4-0.3,9.6-3.8,9.6-2.5s-6.2,3.1-7.2,3.2c-5.2,0.3-10.5-0.1-15.6-1.2" class="st11"/><path d="M130,244.1c-1.3,0.1-2.7,0.1-4,0.1c-0.7-0.1-1.3-0.1-2-0.2c-0.7-0.1-1.3-0.2-2-0.4c1.4-0.1,2.7,0,4,0.1 C127.4,243.7,128.7,243.8,130,244.1z" class="st41"/><path d="M128.8,245.8c-1.4,0.4-2.9,0.6-4.3,0.7c-0.7,0-1.4,0.1-2.2,0c-0.7,0-1.5-0.1-2.2-0.3 C123.1,246.1,125.9,245.8,128.8,245.8z" class="st41"/><path d="M127,247.5c-1.2,0.4-2.5,0.7-3.8,0.8c-0.6,0.1-1.3,0.1-1.9,0.1c-0.7,0-1.3,0-2-0.1c1.3-0.2,2.6-0.4,3.8-0.6 S125.7,247.5,127,247.5z" class="st41"/><path d="M110.2,165.5c-7.9-0.1-15.6,1.4-20.6,5c-9.3,6.9-18.1,29.6-18.1,29.6l25.7,9.9l11.2-21.8" class="st12"/><line x1="95.4" x2="104.1" y1="209.6" y2="194.6" class="st15"/><line x1="97.9" x2="73.8" y1="205.4" y2="195.4" class="st15"/><path d="M106.8,165.5c3.3,3.7,8.1,5.8,13.1,5.7c8.7,0,9.7-4,9.7-4" class="st15"/><path d="M179.9,185.5c0,0,12.6-15.8,13.5-15.8s-0.8,2.9-0.1,2.9s4.6-6.5,5.4-6.2c1.1,0.4-2.5,6.1-2.5,6.1 s1-1.1,1.9-0.4c0.6,0.4-0.1,2.2-0.1,2.2s1-0.6,1.7-0.1s0,2,0,2s1-1.2,1.7-0.2s-2.7,9.6-8.6,19.1" class="st11"/><path d="M192.5,174c-0.3,2-0.8,3.9-1.4,5.8" class="st42"/><path d="M201.2,177.9c-0.5,0.7-1,1.5-1.5,2.2c-0.3,0.3-0.6,0.7-0.9,1c-0.2,0.2-0.3,0.3-0.5,0.4 c-0.2,0.2-0.5,0.2-0.8,0.1c-0.1-0.2-0.2-0.5-0.1-0.8c0-0.2,0.1-0.4,0.2-0.7c0.1-0.4,0.3-0.9,0.5-1.3c0.4-0.8,0.7-1.6,1.2-2.4 l0.4,0.2c-0.5,0.9-1.1,1.7-1.7,2.5c-0.3,0.4-0.6,0.8-1,1.2c-0.2,0.2-0.4,0.4-0.6,0.5c-0.2,0.1-0.4,0.1-0.6,0 c-0.2-0.1-0.3-0.3-0.3-0.5c0-0.5,0.1-1.1,0.3-1.6c0.1-0.5,0.3-1,0.5-1.4c0.4-0.9,0.8-1.9,1.2-2.8l0.4,0.2c-0.5,0.9-1,1.8-1.6,2.7 c-0.3,0.4-0.6,0.8-0.9,1.2c-0.2,0.2-0.4,0.4-0.6,0.6c-0.1,0.1-0.3,0.1-0.5,0.1c-0.2-0.1-0.3-0.2-0.3-0.4c0.1-1,0.4-2.1,0.8-3 c0.4-0.9,0.8-1.9,1.2-2.8c-0.4,0.9-0.8,1.9-1.1,2.9c-0.2,0.5-0.3,1-0.4,1.5c-0.2,0.5-0.2,1-0.2,1.4c0,0.1,0.1,0.2,0.1,0.2 c0.1,0,0.2,0,0.2-0.1c0.2-0.1,0.4-0.3,0.5-0.5c0.3-0.4,0.6-0.8,0.9-1.2c0.5-0.9,1.1-1.8,1.5-2.6l0.4,0.2c-0.4,0.9-0.8,1.8-1.2,2.8 c-0.4,0.9-0.6,1.8-0.8,2.8c0,0.1,0,0.2,0,0.1s0,0,0.1,0c0.2-0.1,0.4-0.3,0.5-0.4c0.3-0.4,0.6-0.7,0.9-1.1c0.6-0.8,1.1-1.6,1.7-2.5 l0.4,0.2c-0.4,0.8-0.8,1.6-1.2,2.4c-0.2,0.4-0.4,0.8-0.5,1.2c-0.1,0.2-0.1,0.4-0.2,0.6c-0.1,0.2-0.1,0.4,0,0.5 c0.1,0.1,0.3,0,0.4-0.1c0.2-0.1,0.4-0.2,0.5-0.4c0.3-0.3,0.6-0.6,0.9-1C200.2,179.3,200.7,178.6,201.2,177.9z" class="st41"/></g></svg>