<svg xmlns="http://www.w3.org/2000/svg" xmlns:xlink="http://www.w3.org/1999/xlink" id="Layer_1" x="0" y="0" version="1.1" viewBox="0 0 500 479.8" xml:space="preserve" style="enable-background:new 0 0 500 479.8"><style type="text/css">.st0{fill:none;stroke:#adbbf9;stroke-linejoin:round;stroke-dasharray:3.5,3.5}.st1{fill:#e4e9f9}.st2,.st3{fill:#fff;stroke:#adbbf9;stroke-linejoin:round}.st3{fill:none}.st4{fill:#00206a}.st5{fill:#0948b3}.st6{fill:none;stroke:#ebebeb;stroke-miterlimit:10}.st7{clip-path:url(#SVGID_2_)}.st8{fill:url(#SVGID_3_)}.st9{fill:url(#SVGID_4_)}.st10{fill:#fff}.st11{fill:none;stroke:#4643bf;stroke-miterlimit:10}.st12{fill:#d3dbf4}.st13{fill:none;stroke:#fff;stroke-miterlimit:10}.st14{fill:#e3eafc}.st15{fill:#f0f1ff}.st16{fill:#c2cfef}.st17{fill:none;stroke:#d3dbf4;stroke-miterlimit:10}.st18{fill:#ffcbbd}.st19{fill:#e5eaf9}.st20{fill:none;stroke:#121649;stroke-width:.75;stroke-miterlimit:10}.st21{fill:#f1f1f1}.st22{fill:none;stroke:#1a3987;stroke-width:.75;stroke-miterlimit:10}.st23{fill:#212237}.st24{fill:none;stroke:#e88872;stroke-width:.5;stroke-linejoin:round}.st25{fill:#28364c}.st26{fill:none;stroke:#28364c;stroke-width:.75;stroke-miterlimit:10}.st27{fill:#ee5050}.st28,.st29{fill:none;stroke:#a52f2d;stroke-width:.75;stroke-miterlimit:10}.st29{stroke:#5565aa}.st30{fill-rule:evenodd;clip-rule:evenodd;fill:#ffcbbb}.st31{fill:none;stroke:#28364c;stroke-width:.5;stroke-linecap:round;stroke-linejoin:round}.st32{fill:none;stroke:#ef977f;stroke-miterlimit:10}.st33{fill:#14122d}.st34{fill:#ffcbbb}.st35{fill:#adbbf9}.st36{fill:none;stroke:#e5eaf9;stroke-miterlimit:10}.st37,.st38{fill:#fff;stroke:#c5c8ef;stroke-linejoin:round}.st38{fill:none}</style><metadata><sfw xmlns="http://ns.adobe.com/SaveForWeb/1.0/"><slices/><sliceSourceBounds width="500" height="479.8" x="0" y="0" bottomLeftOrigin="true"/></sfw></metadata><g id="Screen"><path d="M180,328.2c-5.8-19.9-22.2-35.2-43.5-35.7c-12.4-0.3-24.3,5-34.9,11c-14.2,8.2-31,18-48,15.5 c-10.9-1.6-23.8-7.7-26.4-20.3c-2.7-13.4,8.1-22.5,19.6-27.9c9.9-4.6,23.8-15.6,28.2-26.1c17.6-41.8-31.7-89.5-17.7-137.1 c14.6-49.8,81.9-58.2,115.8-24.4c3.3,3.2,6.3,6.7,9.1,10.4c6.9,9.2,11,21.7,20.6,28.5c12.4,8.9,28.6,6.1,42,0.8 c25.6-10.1,32.4-16.8,57.4-27.7c18-7.8,40.2-14.8,60.4-7.9c14.5,5,30.5,14,38.6,26.9c15.1,24.2,8.3,50.2,32.1,84.5 c10.8,15.6,28,19.9,41.6,31.2c35.5,29.1,23.6,90.6-15.1,111.6c-31.8,17.3-70.9,13.3-105.3,8.9c-2.6-0.3-5.3-0.7-7.9-1.1" class="st0"/><path d="M431.4,101.8c6.1-7,10.5-15.2,12.8-24.2l-11.8-4.2c0.9-4,1.3-8.2,1.1-12.3l12.4-1.9 c-0.6-9.2-3.4-18.2-8.1-26.2l-11.3,5.4c-2.2-3.5-4.8-6.7-7.9-9.5l7.4-10.1c-6.9-6.1-15.2-10.5-24.2-12.8l-4.2,11.8 c-4-0.9-8.2-1.3-12.3-1.1l-1.9-12.4c-9.2,0.6-18.2,3.3-26.2,8l5.4,11.3c-3.5,2.2-6.7,4.9-9.6,7.9l-10.1-7.4 c-6.1,6.9-10.5,15.2-12.8,24.2l11.8,4.2c-0.9,4-1.3,8.2-1.1,12.3l-12.4,1.9c0.6,9.2,3.4,18.2,8.1,26.2l11.3-5.4 c2.2,3.5,4.8,6.7,7.9,9.5l-7.4,10.1c7,6.1,15.2,10.5,24.2,12.8l4.2-11.8c4,0.9,8.2,1.3,12.3,1.1l2,12.4c9.2-0.6,18.2-3.4,26.2-8.1 l-5.4-11.3c3.5-2.2,6.7-4.8,9.5-7.9L431.4,101.8z M373.4,88.9c-14.4-7.6-19.9-25.3-12.3-39.7s25.3-19.9,39.7-12.3 s19.9,25.3,12.3,39.7c0,0,0,0,0,0C405.5,90.9,387.8,96.4,373.4,88.9z M377.4,81.4c-10.2-5.4-14.1-18-8.7-28.2s18-14.1,28.2-8.7 c10.2,5.4,14.1,18,8.7,28.2c0,0,0,0,0,0C400.2,82.9,387.6,86.8,377.4,81.4C377.4,81.4,377.4,81.4,377.4,81.4z" class="st1"/><path d="M162.8,130.2c3.3-4.7,5.5-10,6.4-15.7l-7.5-1.9c0.3-2.6,0.3-5.1-0.1-7.7l7.5-2c-0.9-5.7-3.2-11-6.6-15.6 l-6.7,4c-1.6-2-3.4-3.8-5.4-5.4l3.9-6.7c-4.7-3.3-10-5.5-15.7-6.4l-1.9,7.5c-2.5-0.3-5.1-0.3-7.6,0l-2-7.5 c-5.7,0.9-11,3.2-15.6,6.6l4,6.7c-2,1.6-3.8,3.4-5.4,5.4l-6.7-3.9c-3.3,4.7-5.5,10-6.4,15.7l7.5,1.8c-0.3,2.6-0.3,5.1,0.1,7.7 l-7.5,1.9c0.9,5.7,3.2,11,6.6,15.6l6.7-4c1.6,2,3.4,3.8,5.4,5.4l-3.9,6.7c2.3,1.7,4.8,3.1,7.5,4.1c2.6,1.1,5.4,1.8,8.2,2.3l1.9-7.5 c2.5,0.3,5.1,0.3,7.6-0.1l2,7.5c5.7-0.9,11-3.2,15.6-6.6l-4-6.6c2-1.6,3.8-3.4,5.4-5.4L162.8,130.2z M126.3,125.9 c-9.3-3.8-13.8-14.4-10-23.7s14.4-13.8,23.7-10s13.8,14.4,10,23.7c0,0,0,0,0,0C146.2,125.2,135.6,129.7,126.3,125.9z M128.3,121 c-6.7-2.7-9.9-10.3-7.2-16.9s10.3-9.9,16.9-7.2c6.7,2.7,9.9,10.3,7.2,16.9c0,0,0,0,0,0.1l0,0C142.5,120.5,134.9,123.7,128.3,121z" class="st1"/><path d="M192.7,60.9c1.3-1.5,2.5-3.1,3.4-4.9c0.9-1.8,1.6-3.7,2.1-5.6l-5.1-1.8c0.4-1.7,0.6-3.5,0.5-5.3l5.4-0.8 c-0.3-4-1.5-7.8-3.5-11.3l-4.9,2.3c-1-1.5-2.1-2.9-3.4-4.2l3.2-4.4c-3-2.6-6.6-4.5-10.5-5.5l-1.8,5.1c-1.7-0.4-3.5-0.6-5.3-0.5 l-0.8-5.4c-4,0.3-7.9,1.5-11.4,3.5l2.3,4.9c-1.5,0.9-2.9,2.1-4.1,3.4l-4.4-3.2c-1.3,1.5-2.4,3.2-3.4,4.9c-0.9,1.8-1.7,3.7-2.2,5.6 l5.2,1.8c-0.4,1.7-0.6,3.5-0.5,5.3l-5.4,0.8c0.3,4,1.5,7.8,3.5,11.3l4.9-2.3c0.9,1.5,2.1,2.9,3.4,4.1l-3.3,4.4 c3,2.7,6.6,4.6,10.5,5.6l1.8-5.2c1.7,0.4,3.5,0.6,5.3,0.5l0.8,5.4c4-0.3,7.8-1.5,11.3-3.5L184,61c1.5-0.9,2.9-2.1,4.1-3.4 L192.7,60.9z M169.3,52.2c-4.5-2.4-6.2-7.9-3.8-12.4c2.4-4.5,7.9-6.2,12.4-3.8c4.5,2.4,6.2,7.9,3.8,12.4l0,0 C179.3,52.8,173.8,54.5,169.3,52.2z" class="st1"/><path d="M89.7,136.7c0-0.7-0.1-1.4-0.2-2.1c-0.7-6.2-4.9-5.6-7.6-5.4s-5.9,0.3-7.2-2.6c-0.6-1.2-0.5-2.8-0.9-4.1 c-0.7-2.8-3.2-4.7-6-4.8c-2.6,0-5,1.5-7.1,3.3c-1.1,0.9-2.3,2.1-3.6,1.7c-0.9-0.4-1.6-1-2-1.9c-3-4.9-3-12.1-6.3-16.7 c-3.7-5.1-10.5-5.2-15.1-1.5s-7.3,10.3-8.5,17c-0.4,2.2-0.7,4.5-2.1,6c-1.9,2.1-4.8,1.4-7.4,1.1c-3-0.5-6.1,0.3-8.5,2.3 c-2.1,2-3.2,4.9-3,7.8h85.5V136.7z" class="st2"/><path d="M243.2,33.1h84.2c0,0-3.4-3.9-7.2-5.3c-4.8-1.7-6.8,3-9.8-3.1c-1.7-3.4-2.9-7.9-7.4-9.1c-7-1.8-8.8,4-12.1,2.4 c-2.9-1.4-2.8-6.9-5.8-11.4s-9.9-7.2-14.7-4.9c-8.8,4.3-7.6,11.1-10.5,13.3s-9.3-5.6-16.6,2.8C238.2,23.6,243.2,33.1,243.2,33.1z" class="st2"/><path d="M331,4.2c0,2-1.7,3.7-3.7,3.7s-3.7-1.7-3.7-3.7c0,0,0,0,0,0c0-2,1.6-3.7,3.6-3.7c0,0,0.1,0,0.1,0l0,0 C329.3,0.5,331,2.1,331,4.2C331,4.2,331,4.2,331,4.2z" class="st3"/><path d="M398.1,148.8c0,2-1.7,3.7-3.7,3.7c-2,0-3.7-1.7-3.7-3.7c0-2,1.7-3.7,3.7-3.7l0,0 C396.4,145.1,398.1,146.7,398.1,148.8C398.1,148.8,398.1,148.8,398.1,148.8z" class="st3"/><path d="M91.9,54.1c0,2-1.7,3.7-3.7,3.7c-2,0-3.7-1.7-3.7-3.7s1.7-3.7,3.7-3.7l0,0l0,0C90.2,50.4,91.9,52.1,91.9,54.1z" class="st3"/><path d="M135.6,37.3c0,1.4-1.1,2.5-2.5,2.5s-2.5-1.1-2.5-2.5s1.1-2.5,2.5-2.5l0,0C134.5,34.8,135.6,35.9,135.6,37.3z" class="st3"/><circle cx="362.2" cy="131.9" r="2.5" class="st3"/><path d="M463.4,68.8c0,1.4-1.1,2.5-2.5,2.5s-2.5-1.1-2.5-2.5s1.1-2.5,2.5-2.5c1.3,0,2.5,1,2.5,2.3 C463.4,68.7,463.4,68.7,463.4,68.8z" class="st3"/><path d="M458.1,252.6c0,1.4-1.1,2.5-2.5,2.5s-2.5-1.1-2.5-2.5s1.1-2.5,2.5-2.5C457,250.1,458.1,251.2,458.1,252.6 C458.1,252.6,458.1,252.6,458.1,252.6z" class="st3"/><path d="M68.4,276.7c0,1.4-1.1,2.5-2.5,2.5s-2.5-1.1-2.5-2.5s1.1-2.5,2.5-2.5l0,0C67.3,274.2,68.4,275.3,68.4,276.7 C68.4,276.7,68.4,276.7,68.4,276.7z" class="st3"/><path d="M75.9,162c0,1.4-1.1,2.5-2.5,2.5s-2.5-1.1-2.5-2.5s1.1-2.5,2.5-2.5l0,0C74.8,159.5,75.9,160.6,75.9,162 C75.9,162,75.9,162,75.9,162z" class="st3"/><path d="M39.5,289.1h3.4c0.6,0,1.1,0.5,1.1,1.1v3.4c0,0.6-0.5,1.1-1.1,1.1h-3.4c-0.6,0-1.1-0.5-1.1-1.1v-3.4 C38.4,289.6,38.9,289.1,39.5,289.1z" class="st1"/><path d="M33.7,84.6h3.4c0.6,0,1.1,0.5,1.1,1.1v3.4c0,0.6-0.5,1.1-1.1,1.1h-3.4c-0.6,0-1.1-0.5-1.1-1.1v-3.4 C32.6,85.1,33.1,84.6,33.7,84.6z" class="st1"/><path d="M462.3,39.8h6.4c1.1,0,2.1,0.9,2.1,2c0,0,0,0.1,0,0.1v6.5c0,1.1-0.9,2.1-2,2.1c0,0-0.1,0-0.1,0h-6.4 c-1.1,0-2.1-0.9-2.1-2c0,0,0-0.1,0-0.1v-6.5C460.2,40.7,461.1,39.8,462.3,39.8z" class="st1"/><path d="M405.1,205.8h3.4c0.6,0,1.1,0.5,1.1,1.1v3.4c0,0.6-0.5,1.1-1.1,1.1h-3.4c-0.6,0-1.1-0.5-1.1-1.1v-3.4 C404,206.3,404.5,205.8,405.1,205.8z" class="st1"/><path d="M332,171.6c0-0.5,0.1-1,0.1-1.5c0.6-4.4,4-4.1,6.2-3.9s4.9,0.2,5.9-1.9c0.3-1,0.6-2,0.7-3 c0.8-2.1,2.8-3.5,5-3.5c2.1,0.1,4.2,1,5.8,2.4c5.6,4.2,7.2-6.9,9.8-10.1c3-3.7,8.6-5.7,12.4-3.1s6,7.4,7,12.2 c0.3,1.6,0.4,3.5,1.7,4.3c3.7,2.5,8.4-2.4,12.9,1.4c1.6,1.3,1.9,4.5,1.7,6.6L332,171.6z" class="st2"/><path d="M165,50.7h175.5c5.1,0,9.3,4.1,9.3,9.3c0,0,0,0,0,0v330.3c0,5.1-4.1,9.3-9.3,9.3c0,0,0,0,0,0H165 c-5.1,0-9.3-4.1-9.3-9.3c0,0,0,0,0,0V60C155.7,54.9,159.9,50.7,165,50.7z" class="st4"/><path d="M340.5,51.2c4.9,0,8.8,3.9,8.8,8.8v330.2c0,4.9-3.9,8.8-8.8,8.8H165c-4.9,0-8.8-3.9-8.8-8.8V60 c0-4.9,3.9-8.8,8.8-8.8H340.5 M340.5,50.2H165c-5.4,0-9.8,4.4-9.8,9.8l0,0v330.2c0,5.4,4.4,9.8,9.8,9.8h175.5 c5.4,0,9.8-4.4,9.8-9.8V60C350.3,54.6,345.9,50.2,340.5,50.2z" class="st5"/><path d="M261.7,384.1c0,4.9-4,8.9-8.9,8.9c-4.9,0-8.9-4-8.9-8.9c0-4.9,4-8.9,8.9-8.9c0,0,0,0,0,0l0,0 C257.7,375.2,261.7,379.2,261.7,384.1z" class="st6"/><g><defs><path id="SVGID_1_" d="M165,50.2h175.5c5.4,0,9.8,4.4,9.8,9.8v330.3c0,5.4-4.4,9.8-9.8,9.8H165c-5.4,0-9.8-4.4-9.8-9.8V60 C155.2,54.6,159.6,50.2,165,50.2z"/></defs><clipPath id="SVGID_2_"><use xlink:href="#SVGID_1_" style="overflow:visible"/></clipPath><g class="st7"><linearGradient id="SVGID_3_" x1="100.925" x2="393.525" y1="-160.925" y2="131.675" gradientTransform="matrix(1 0 0 -1 0 196)" gradientUnits="userSpaceOnUse"><stop offset=".27" style="stop-color:#fff;stop-opacity:.1"/><stop offset="1" style="stop-color:#fff;stop-opacity:.3"/></linearGradient><polygon points="299 12.3 153 409 195.4 409 341.5 12.3" class="st8"/><linearGradient id="SVGID_4_" x1="150.35" x2="430.75" y1="-154.85" y2="125.55" gradientTransform="matrix(1 0 0 -1 0 196)" gradientUnits="userSpaceOnUse"><stop offset=".27" style="stop-color:#fff;stop-opacity:.1"/><stop offset="1" style="stop-color:#fff;stop-opacity:.3"/></linearGradient><polygon points="354.6 12.3 208.5 409 226.5 409 372.6 12.3" class="st9"/></g></g><rect width="192" height="284.8" x="156.8" y="82.8" class="st10"/><path d="M241.8,64.7h27.1c0.6,0,1.1,0.5,1.1,1.1l0,0c0,0.6-0.5,1.1-1.1,1.1h-27.1c-0.6,0-1.1-0.5-1.1-1.1l0,0 C240.7,65.2,241.2,64.7,241.8,64.7z" class="st11"/><circle cx="235.7" cy="65.8" r="1.1" class="st11"/><rect width="82.9" height="83.7" x="169.9" y="193.1" class="st12"/><circle cx="211.3" cy="222.9" r="17.2" class="st13"/><ellipse cx="211.3" cy="222.9" class="st13" rx="11.8" ry="17.1"/><ellipse cx="211.3" cy="222.9" class="st13" rx="4.6" ry="17.1"/><line x1="194.2" x2="228.5" y1="222.9" y2="222.9" class="st13"/><path d="M196,230.6c3.3-1.1,8.9-1.8,15.4-1.8s12.1,0.7,15.4,1.8" class="st13"/><path d="M200.9,236.6c3.3-1.2,6.9-1.8,10.4-1.8c3.5,0,7,0.6,10.3,1.7" class="st13"/><path d="M196,215.4c3.3,1.1,8.9,1.8,15.4,1.8s12.1-0.7,15.4-1.8" class="st13"/><path d="M200.9,209.4c6.7,2.3,13.9,2.3,20.6,0" class="st13"/><rect width="68.8" height="4.4" x="176.9" y="257.4" class="st14"/><rect width="41.1" height="4.4" x="204.6" y="249.2" class="st14"/><rect width="23" height="4.4" x="176.9" y="249.2" class="st14"/><rect width="68.8" height="4.4" x="176.9" y="265.6" class="st14"/><rect width="82.9" height="83.7" x="252.7" y="193.1" class="st15"/><rect width="68.8" height="4.4" x="259.8" y="208" class="st1"/><rect width="68.8" height="4.4" x="259.8" y="216.2" class="st1"/><rect width="21.4" height="4.4" x="259.7" y="224.5" class="st1"/><rect width="41.5" height="4.4" x="286.9" y="224.5" class="st1"/><rect width="68.8" height="4.4" x="259.8" y="232.7" class="st1"/><rect width="68.8" height="4.4" x="259.8" y="240.9" class="st1"/><rect width="68.8" height="4.4" x="259.8" y="249.2" class="st1"/><rect width="19.9" height="4.4" x="308.7" y="257.4" class="st1"/><rect width="44.2" height="4.4" x="259.8" y="257.4" class="st1"/><rect width="68.8" height="4.4" x="259.8" y="265.6" class="st1"/><rect width="18.2" height="4.4" x="310.3" y="199.8" class="st1"/><rect width="45.9" height="4.4" x="259.7" y="199.8" class="st1"/><rect width="82.9" height="83.7" x="169.9" y="276.8" class="st15"/><rect width="68.8" height="4.4" x="176.9" y="341.2" class="st1"/><rect width="68.8" height="4.4" x="176.9" y="332.9" class="st1"/><rect width="17.7" height="4.4" x="228" y="324.7" class="st1"/><rect width="45.3" height="4.4" x="177" y="324.7" class="st1"/><rect width="68.8" height="4.4" x="176.9" y="316.5" class="st1"/><rect width="68.8" height="4.4" x="176.9" y="308.2" class="st1"/><rect width="68.8" height="4.4" x="176.9" y="300" class="st1"/><rect width="32" height="4.4" x="176.9" y="291.8" class="st1"/><rect width="32.1" height="4.4" x="213.6" y="291.8" class="st1"/><rect width="68.8" height="4.4" x="176.9" y="283.5" class="st1"/><rect width="32.1" height="4.4" x="176.9" y="349.4" class="st1"/><rect width="32.1" height="4.4" x="213.7" y="349.4" class="st1"/><rect width="82.9" height="83.7" x="252.7" y="276.8" class="st12"/><polygon points="311 334.4 277.8 334 274 310.2 314.2 310.1" class="st16"/><polygon points="314.2 310.1 274 310.2 294.1 293.6" class="st16"/><rect width="27.4" height="23.2" x="280.1" y="307.8" class="st10" transform="matrix(1 -1.745326e-03 1.745326e-03 1 -0.557 0.5133)"/><polygon points="274 310.2 274.1 336.3 294.1 324.1" class="st14"/><polygon points="314.2 310.1 314.3 336.2 294.1 324.1" class="st14"/><polygon points="314.3 336.2 274.1 336.3 294.1 319.7" class="st14"/><polyline points="274.1 336.3 294.1 319.7 314.3 336.2" class="st17"/><line x1="297" x2="314.2" y1="322.1" y2="310.1" class="st17"/><line x1="291.3" x2="274" y1="322.1" y2="310.2" class="st17"/><rect width="32.1" height="4.4" x="278.1" y="346.3" class="st14"/><rect width="165.8" height="83.6" x="169.9" y="102.1" class="st12"/><rect width="78.1" height="5.8" x="250.4" y="114.1" class="st14"/><rect width="78.1" height="5.8" x="250.4" y="124.9" class="st14"/><rect width="78.1" height="5.8" x="250.4" y="135.6" class="st14"/><rect width="78.1" height="5.8" x="250.4" y="146.4" class="st14"/><rect width="78.1" height="5.8" x="250.4" y="167.9" class="st14"/><rect width="46.7" height="5.8" x="281.9" y="157.1" class="st14"/><rect width="26.1" height="5.8" x="250.4" y="157.1" class="st14"/><rect width="59.1" height="59.1" x="179.4" y="114.4" class="st14"/><polygon points="214.4 132.8 232.4 163.6 196.4 163.6" class="st10"/><polygon points="196.2 142.9 200 150.3 193.1 163.6 185.5 163.6" class="st10"/><path d="M187,131c0,1.8,1.5,3.3,3.3,3.3c1.8,0,3.3-1.5,3.3-3.3c0-1.8-1.5-3.3-3.3-3.3l0,0 C188.5,127.7,187,129.2,187,131z" class="st10"/><path d="M206,95.2h93.5c1.5,0,2.7-1.2,2.7-2.7c0,0,0,0,0,0l0,0c0-1.5-1.2-2.7-2.7-2.7c0,0,0,0,0,0H206 c-1.5,0-2.7,1.2-2.7,2.7c0,0,0,0,0,0l0,0C203.3,94,204.5,95.2,206,95.2C206,95.2,206,95.2,206,95.2z" class="st12"/><line x1="252.8" x2="252.8" y1="193.1" y2="360.5" class="st13"/><line x1="169.9" x2="335.7" y1="276.8" y2="276.8" class="st13"/><path d="M331,436.5l0.9,29.6l-1,9.3l-35.3-0.2c-0.9,0-1.6-0.7-1.6-1.6c0,0,0,0,0,0l0,0c0-0.7,0.4-1.3,1-1.5l15.8-7.2 l-2.4-30.8" class="st18"/><path d="M292.5,474.8c0.4-1.2,1.1-2.5,1.8-2.8l16.7-7.2c9.2,3.7,21.1,0.9,21.1,0.9l0.9,12.6c0,0.4-0.3,0.7-0.7,0.7 c0,0,0,0,0,0l0,0l-39.5-0.2C291.9,478.9,292.5,474.9,292.5,474.8z" class="st19"/><path d="M307.3,465.6c0.9,1.2,1.7,2.6,2.4,4" class="st20"/><path d="M305.2,466.8c0.8,1,1.4,2.2,1.9,3.4" class="st20"/><path d="M303.4,467.8c0.7,1,1.3,2,1.8,3.1" class="st20"/><line x1="332.8" x2="292.3" y1="476.4" y2="476.1" class="st20"/><path d="M332.4,470.3c0,0-9.4,0.1-10.2,6" class="st20"/><path d="M297.6,470.6c0,0,2.7,3.8,3.2,5.6" class="st20"/><path d="M326.9,320.2c0,0,4.3,7.2,5.5,12.6c1.1,5.7,1.1,11.7,0,17.4l-0.1,103.5h-26.2c0,0-5.8-119.3-3.2-134.7" class="st21"/><path d="M310.1,453.6c0,0-5.8-119.3-3.2-134.7" class="st22"/><path d="M302.1,424.9L314,452l2.6,9l-32.8,13c-0.8,0.3-1.7-0.1-2.1-0.9l0,0c-0.3-0.6-0.1-1.4,0.4-1.8l11.9-12.6 L280.2,431" class="st18"/><path d="M280.6,474.8c-0.2-1.1,0-2.2,0.6-3.2l12.8-12.9c9.9,0,19.9-7,19.9-7l5.5,11.3c0.2,0.4,0,0.8-0.3,1 c0,0,0,0-0.1,0l0,0l-36.7,14.5C281.6,478.7,280.6,474.8,280.6,474.8z" class="st19"/><path d="M290.9,460.7c1.3,0.8,2.6,1.7,3.7,2.8" class="st20"/><path d="M289.4,462.6c1.1,0.7,2.1,1.5,3,2.4" class="st20"/><path d="M288.1,464.1c1,0.7,1.9,1.4,2.8,2.2" class="st20"/><line x1="318.5" x2="280.9" y1="461.2" y2="476.1" class="st20"/><path d="M316,455.7c0,0-8.7,3.5-7.2,9.3" class="st20"/><path d="M283.8,468.9c0,0,3.9,2.5,5.1,4" class="st20"/><path d="M281.7,337c-13.5,33.1-13.7,36.6-15.9,52.8c-2.3,16.6,22.6,65.4,22.6,65.4l23.9-10.5c0,0-15.9-44.6-14.8-52.3 c1.9-14.1,18.2-38.2,18.2-38.2s7.7-6.1,9.4-14.3s-2-16.7-2-16.7" class="st21"/><path d="M306.3,341l10.7-3.4" class="st22"/><line x1="329.2" x2="332.6" y1="334.5" y2="333.5" class="st22"/><path d="M289.7,336c0,0-16.6,36.2-18.9,52.8s22,64,22,64" class="st22"/><path d="M303,376.4c3.7-7.7,7.9-15.2,12.6-22.3c0,0,7.7-6.1,9.4-14.3" class="st22"/><path d="M279.5,255.2l6.9,11.9c0,0-4.1,8.9-15.2,4.7l-2.8-6.3L279.5,255.2z" class="st18"/><path d="M261.2,247.1c0,0-3.4,15.9,2.5,18.7c3,1.5,11.6,0.6,13.6-2.7c1.5-2.4,0.9-13.8-0.9-15.2 C269.4,242.6,261.2,247.1,261.2,247.1z" class="st18"/><path d="M276.1,242.4c-2.6-4.5-7.8-3.6-16.3,1.2c-1.1,0.6-3.6,0.9-3.6,2.2c0,1.7,1.2,4.5,3.2,5.1 c1.1,0.3,2.3,0.3,3.4-0.1c1.8-0.4,4.1,0.3,4.1,2.4c0,0.5-0.2,1.5,0.3,1.7h1.2c0.8,0,1.2,1,1.1,1.8c-0.1,0.8,0.4,1.4,0.3,2.1 c-0.2,1.9,2.1,3.9,4,4.1c1.7,0.1,6.5-0.7,8.8-3.8c2-2.7,1.8-7.3-1.6-14.1C279.8,242.5,277,241.8,276.1,242.4z" class="st23"/><path d="M266.7,255.7c0.5-2.5,1.9-2.8,3-2.1c1.5,0.9,1.2,4.5,0.6,5.4c-1.1,1.8-2.5,2.3-3.2,1" class="st18"/><path d="M268.8,266.4c1.1-1.1,1.7-2.6,1.5-4.2" class="st24"/><path d="M261.8,254.7c-0.2,0.5-0.3,1.4,0.1,1.7c0.1,0.1,0.3,0.1,0.4,0C263.2,255.8,262.3,253.5,261.8,254.7z" class="st25"/><path d="M261,252.9c0.9-0.1,1.8,0.1,2.6,0.5" class="st26"/><path d="M264,260.5l-2.6-0.1c0,0-0.1,3.1,1.1,3.2S264,260.5,264,260.5z" class="st10"/><path d="M284.7,264.3c0,0,6-1.5,14.4,0.9c7.1,2.1,16.2,7.4,23,14.7c11.8,12.6,6.4,43.8,6.4,43.8l-15.4-0.6 c0,0,2.4-20.1-5.6-28.1s-19.4-9.9-19.4-9.9" class="st27"/><path d="M219.5,308.2c-4.8,1.3-19.4,2.9-19.6,3.9s4.9,0.5,4.6,1.3s-8.2,2.1-8.2,3.1c0,1.4,8-0.3,8-0.3 s-3.3,0.6-2.9,1.8c0.3,0.9,1.6,1.1,4.3,0.9c-1.4,0.3-2,1-1.7,1.9s1.7,0.8,3.2,0.6c-1,0.2-1.8,0.9-1.1,1.5c0.9,0.8,6.8,0.4,17.4-1.4" class="st18"/><path d="M269.5,268.3c2.8,1,5.9,1,8.7,0c2.4-0.8,4.7-2.2,6.5-4c0,0,10.3-0.7,22.9,11.9s22.6,48.7,22.6,48.7 l-52.1,17.5c0,0-8.9-31.5-12.4-45.9S269.5,268.3,269.5,268.3z" class="st27"/><path d="M307,272.9c10.4,12.1,23.3,52,23.3,52" class="st28"/><path d="M269.5,268.3c-6.9,2.6-12.8,9.3-16.4,16.1c-5.9,11.2-9.5,19.4-9.5,19.4l-29.9,4.5l1.5,16c0,0,20.3-0.6,36.4-3 c11.5-1.7,20.4-25.5,20.4-25.5" class="st27"/><path d="M267.5,269.2c0,0,3.3,4.4,11.2,1.4s8.2-6.6,8.2-6.6" class="st28"/><line x1="268.2" x2="271.5" y1="303.9" y2="297" class="st28"/><line x1="218.5" x2="219.6" y1="307.6" y2="324" class="st28"/><line x1="277.2" x2="329.2" y1="339" y2="321.8" class="st28"/><path d="M113.5,346.6l-0.9,28.5l0.9,9l34-0.2c0.9,0,1.6-0.7,1.6-1.6c0,0,0,0,0,0l0,0c0-0.6-0.4-1.2-1-1.4l-15.2-7 l2.3-29.7" class="st18"/><path d="M150.7,383.6c-0.4-1.1-1-2.4-1.7-2.7l-16.1-6.9c-8.9,3.6-20.3,0.9-20.3,0.9l-0.9,12.1c0,0.4,0.3,0.7,0.7,0.7 c0,0,0,0,0,0l38-0.2C151.2,387.5,150.7,383.6,150.7,383.6z" class="st19"/><path d="M136.4,374.7c-0.9,1.2-1.7,2.5-2.3,3.8" class="st29"/><path d="M138.4,375.9c-0.7,1-1.4,2.1-1.9,3.2" class="st29"/><path d="M140.1,376.8c-0.7,1-1.2,2-1.8,3" class="st29"/><line x1="111.9" x2="150.8" y1="385" y2="384.8" class="st29"/><path d="M112.2,379.2c0,0,9,0.1,9.8,5.7" class="st29"/><path d="M145.7,379.5c0,0-2.6,3.7-3.1,5.4" class="st29"/><path d="M116.7,244.6c0,0,18.1,33.9,23.8,55.2s-1.9,69.3-1.9,69.3h-28.1c0,0,5.6-52.1-1-69.3S79,237.2,79,237.2" class="st27"/><path d="M114.3,369c0,0,4.6-54.2,1.8-67.6s-22.3-44.5-22.3-44.5" class="st28"/><path d="M81.3,330.8l-16.6,22.9l-4.5,7.8l27.6,19.9c0.7,0.5,1.7,0.4,2.2-0.3l0,0c0.4-0.5,0.4-1.2,0.1-1.8l-8.2-14.6 l18.4-24" class="st18"/><path d="M90.5,382.9c0.4-1.1,0.6-2.5,0.2-3.1l-8.9-15.1c-9.3-2.3-17-11.3-17-11.3l-7.8,9.3c-0.2,0.3-0.1,0.8,0.2,1 L88,385.8C88.6,386.3,90.5,382.9,90.5,382.9z" class="st19"/><path d="M84.2,367.2c-1.4,0.4-2.8,1-4.1,1.7" class="st29"/><path d="M85.1,369.4c-1.2,0.4-2.3,0.9-3.4,1.5" class="st29"/><path d="M86,371.1c-1.1,0.4-2.2,0.9-3.2,1.4" class="st29"/><line x1="58.2" x2="89.9" y1="361.2" y2="384" class="st29"/><path d="M61.9,356.7c0,0,7.3,5.4,4.6,10.4" class="st29"/><path d="M88.9,376.6c-2,0.6-3.9,1.5-5.7,2.5" class="st29"/><path d="M71.6,237.2c-5.4,15.2,0,27.1,0,27.1s18.3,33.4,18.3,40.1c0,6.2-23.4,41.7-23.4,41.7l21.4,17.2 c0,0,33.7-36.2,33-61.3c-0.8-31-17.7-64.9-17.7-64.9" class="st27"/><path d="M75.6,238.2c-5.4,15.2,1.1,25.4,1.1,25.4s17.2,35.1,17.2,41.9c0,6.2-24.3,43.1-24.3,43.1" class="st28"/><path d="M112.4,329.6c5-9.2,8.7-19,8.5-27.5c-0.8-31-17.7-64.9-17.7-64.9" class="st28"/><path d="M73.8,250.2c0,0,9.6,0.6,13.3-7.1" class="st28"/><path d="M110.5,254.5c0,0,2.6,0.3,2.4-1s-2.4-8.3-2.4-8.3" class="st28"/><path d="M122.7,156.7c1,6.1,0.2,11.5-5,12.3s-12.5-0.7-13.9-9.4c-1-6.1,2.5-11.7,7.7-12.6S121.7,150.6,122.7,156.7z" class="st30"/><path d="M118.4,156.8c-0.2,0.6,0,1.2,0.5,1.6c0.1,0.1,0.3,0,0.4-0.1C120,157.6,118.6,155.6,118.4,156.8z" class="st25"/><path d="M116.7,155.4c1.1-0.6,2.4-0.7,3.6-0.2" class="st31"/><path d="M121.8,163.1h-3.4c0,0-0.2,2.8,1.5,3.1C121.3,166.5,121.8,163.1,121.8,163.1z" class="st10"/><path d="M114.9,175.8c-2.6,0.4-5.3,0.3-7.9-0.3c-4.5-1.2-5.8-3.1-5.8-3.1l6.3-13.1l9.7,4.4L114.9,175.8z" class="st30"/><path d="M116.1,169.2c0,0-4.2,0.1-6.4-1.9" class="st32"/><path d="M121.5,156.5c0,0,2.6,3.8,2.5,4.5s-2,1-2,1" class="st30"/><path d="M107.5,165.2c-0.6,0.2-1.2,0.4-1.8,0.4c-1.2,0.2-2.5-0.1-3.6-0.6c-2.1-1.1-3.2-3.4-2.8-5.7 c0.1-0.4,0.2-0.7,0.2-1.1c0.3-1.7-0.7-3.3-1-5c-0.3-1.7,0.1-3.4,1.1-4.8c1-1.4,2.3-2.4,3.9-3c1.3-0.5,2.6-0.6,3.7-1.6 c0.5-0.5,1-0.9,1.5-1.2c2.6-1.6,6.3-0.7,8.6,1c0.3,0.2,0.6,0.4,0.9,0.5c0.6,0.1,1.2-0.1,1.7,0c2.2,0.4,3.2,3.7,3.2,5.7 c0,0.6-0.2,1.1-0.5,1.6c-0.6,0.6-1.4,1-2.2,1.1c-1.2,0-2.3,0.1-3.5,0.2c-0.8,0.3-1.5,0.7-2.2,1.1c-1.2,0.5-2.6,0.4-3.8-0.1 c0.3,0.8,0.4,1.7,0.3,2.5c-0.2,1.6-1.6,2.4-3,2.7c0.6,1.7,0.7,3.5,0.3,5.2C108.3,164.6,108,165,107.5,165.2z" class="st33"/><path d="M109.4,157.7c-0.6-0.8-1.8-1-2.7-0.3c0,0,0,0,0,0h-0.1c-1.9,1.6,0.6,5,2.1,5.5c0.8,0.3,1.6-0.2,1.9-0.9 c0-0.1,0-0.1,0-0.2" class="st34"/><path d="M160.7,222.8c2.9,0.2,16.2,1.6,16.1,2.4s-4.6,1-4.4,1.4c0.2,0.6,3.6,1.1,5.6,1.2c1.7,0.1,4.4,0.5,4.5,1.3 c0.1,1.4-9.3,0.8-9.3,0.8c0,0.4,10.2-1.2,10.4,0c0.3,1.7-10.6,2.6-10.9,3c0,0,9.2-3.4,9.5-2.1s-7.9,4.5-10.6,4.5 c2.1-0.4,8.4-4,8.6-3.1s-5.4,3.3-6.3,3.5c-5,0.7-10,0.9-15,0.5" class="st18"/><path d="M115,174.9c0,0-2.8,1.4-7.2-0.5c-4.7-2-5.7-4.4-5.7-4.4s-25.4,2.2-34.7,72.8l52.1,6.4c0,0,4.2-25.2,3.5-45.6 C122.6,190.6,117.6,180.5,115,174.9" class="st21"/><path d="M99.7,203.2c0,0,8,26.8,29.7,32.6c11.2,3.1,22.7,4.8,34.3,5.1l2.1-18.1c0,0-23.6-4.2-33.3-10.6 c-7.4-4.9-8.8-20.5-10.7-26c-2.6-7.7-6.8-11.2-6.8-11.2" class="st21"/><path d="M100.1,170.6c0,0,1.6,4.9,9,6.5c5.4,1.2,7.5-0.4,7.5-0.4" class="st22"/><path d="M120.9,232.8c0,0-19.7-9.1-20.8-34.9" class="st22"/><line x1="161.4" x2="158.8" y1="222" y2="240.7" class="st22"/><path d="M397.5,478.2c-7.3-58.5,10.4-79.9,29.8-80.9c9.2-0.5,36,3.2,3.6,80.9" class="st10"/><path d="M397.7,478.2c-0.5-6.2-1.2-12.5-1.4-18.7c-0.2-5.3-0.1-10.6,0.2-15.9c0.4-8.2,2.1-16.4,4.9-24.1 c2-5.5,5.2-10.5,9.4-14.6c3.4-3.2,7.6-5.5,12.2-6.5c2.6-0.6,5.3-0.8,8-0.5c2.3,0.2,4.4,0.9,6.4,2c2.5,1.4,4.5,3.5,5.8,6.1 c1.9,3.8,2.8,8,2.9,12.2c0.1,6.9-0.6,13.7-2.2,20.4c-2.4,10.4-5.6,20.6-9.6,30.5c-1.2,3-2.4,6.1-3.6,9.1c-0.1,0.3,0.4,0.5,0.5,0.2 c2.7-5.9,5-12.1,7.1-18.2c1.8-5.1,3.4-10.2,4.8-15.4c2.1-7.4,3.4-15.1,3.8-22.8c0.3-4.8-0.4-9.6-2-14.2c-1.1-3-3-5.6-5.5-7.6 c-2-1.5-4.3-2.5-6.7-2.9c-2.2-0.4-4.4-0.5-6.6-0.2c-4.6,0.5-9.1,2.1-12.8,4.9c-4.4,3.4-8,7.7-10.4,12.7c-3.3,6.9-5.4,14.3-6.2,21.9 c-1.3,10.7-1.4,21.6-0.3,32.3c0.3,3.2,0.6,6.3,1.1,9.4C397.3,478.4,397.7,478.4,397.7,478.2L397.7,478.2z" class="st35"/><line x1="426.7" x2="409.6" y1="397.4" y2="478.1" class="st3"/><path d="M450.3,478.7c11.7-17.4,35.2-57.1,17.5-71.1c-9.7-7.7-27.5,1.8-37,18.8c-9.1,16.5-16.2,34-21.2,52.1" class="st10"/><path d="M450.6,478.9c2.8-4.1,5.4-8.2,7.9-12.5c3-5,5.8-10.2,8.2-15.5c2.5-5.2,4.5-10.6,6.1-16.2 c1.4-4.8,2-9.9,1.6-14.9c-0.3-4.3-2.2-8.3-5.2-11.4c-1.6-1.6-3.6-2.7-5.7-3.4c-2.3-0.6-4.6-0.7-6.9-0.3c-5.5,0.9-10.6,3.9-14.9,7.5 c-2.5,2.1-4.8,4.5-6.9,7.1c-2.2,2.9-4.1,5.9-5.8,9.1c-3.7,6.9-7,13.9-10,21.1c-3.1,7.5-5.8,15.2-8.2,22.9c-0.6,2-1.2,3.9-1.8,5.9 c0,0.2,0.1,0.5,0.4,0.5c0.2,0,0.4-0.1,0.5-0.3c2.2-7.7,4.7-15.4,7.6-22.9c2.8-7.2,5.9-14.3,9.4-21.2c3.2-6.4,6.6-12.7,11.5-18 c4-4.4,8.9-7.9,14.5-10c4.3-1.5,9.3-1.9,13.4,0.6c3.5,2.3,6,6,6.8,10.1c0.8,4.7,0.7,9.6-0.5,14.2c-1.2,5.5-3,10.8-5.3,15.9 c-2.3,5.3-4.9,10.5-7.8,15.5c-2.5,4.5-5.2,8.8-8,13.1c-0.6,0.9-1.1,1.7-1.7,2.6C449.8,478.8,450.3,479.2,450.6,478.9L450.6,478.9z" class="st35"/><line x1="463.8" x2="432.6" y1="406" y2="479.6" class="st3"/><path d="M439.7,478.1c15.4-21.9,28.7-27.7,41.3-26c9.8,1.4,11.3,11.5-9.3,25.9" class="st10"/><path d="M439.9,478.2c1.5-1.8,2.9-3.8,4.3-5.6c1.3-1.7,2.7-3.3,4.2-4.9c2.5-2.7,5.1-5.3,8-7.6 c4.4-3.6,9.6-6.1,15.1-7.4c2.3-0.5,4.7-0.6,7.1-0.5c2,0,3.9,0.4,5.7,1.2c1.3,0.6,2.4,1.7,2.9,3.1c0.5,1.6,0.4,3.4-0.3,4.9 c-1,2.4-2.4,4.6-4.2,6.5c-2.6,2.9-5.5,5.5-8.6,7.8l-2.7,2.1c-0.3,0.2,0.1,0.6,0.4,0.5c3.7-2.3,7.1-5.1,10.1-8.2 c2.1-2,3.9-4.4,5.2-7c1.5-3.1,1.9-7-1.1-9.4c-1.4-1.1-3.1-1.7-4.9-1.9c-2.4-0.4-4.9-0.4-7.3-0.1c-5.6,0.7-10.9,2.9-15.5,6.2 c-6.5,4.6-11.9,10.7-16.6,17.1c-0.8,1-1.5,2-2.1,3.1C439.4,478.2,439.7,478.4,439.9,478.2L439.9,478.2z" class="st35"/><line x1="479.1" x2="455.6" y1="452.1" y2="477.9" class="st3"/><line x1="0" x2="500" y1="478.8" y2="478.8" class="st36"/><path d="M52.2,427.7c-3.5-11.8-12.5-37.6,2.3-70.6c16.8,24,14.5,50.4,9.6,75.3" class="st37"/><path d="M54.5,357.1c0,0-5.7,31.2,2,73" class="st38"/><path d="M57.6,430.4c0,0,3.1-55.8-3.1-73.3" class="st38"/><path d="M59.6,430.8c0,0,9-51.5-5.1-73.7" class="st38"/><path d="M40.6,435.5c-7-6.3-23.3-19.4-25.4-47.9c20.3,7.4,29.6,27,35.7,45.7" class="st37"/><path d="M15.2,387.6c0,0,7.1,24,28.6,48.3" class="st38"/><path d="M47.2,434.2c0,0-23.7-34.4-32-46.5" class="st38"/><path d="M48.8,433.5c0,0-16.4-34.6-33.6-45.9" class="st38"/><path d="M47.2,428.5c-5.6-8.2-21.8-32.9-16.9-59.2c18.8,14.1,26.3,42.1,27.9,61" class="st37"/><path d="M30.4,369.3c0,0,7,39.4,19.4,59.4" class="st38"/><path d="M52.3,429.7c0,0-16.8-52.6-22-60.4" class="st38"/><path d="M55.7,430.1c0,0-10.1-47.5-25.3-60.8" class="st38"/><path d="M74.1,428c4.8-10.6,16.4-33.6,8.4-67.7c-17.5,18.2-19.9,45.4-19.4,70.1" class="st37"/><path d="M82.5,360.2l-14.5,69" class="st38"/><path d="M82.5,360.2c0,0,1.9,30.9-11,69.3" class="st38"/><path d="M65.2,429.6c0,0,3.6-46.4,17.3-69.4" class="st38"/><path d="M74.6,439.1c6.2-7.1,22-24.8,23.3-48.6c-18.3,10.7-26,30.3-30.8,48.6" class="st37"/><path d="M97.9,390.6c0,0-11.4,30.1-25.4,47.5" class="st38"/><path d="M69.1,438.1c0,0,17.1-36.1,28.8-47.5" class="st38"/><path d="M88.4,426v11.2c0,24.9-12,40.9-12,40.9H39.1c0,0-12.1-16-12.1-40.9V426H88.4z" class="st19"/></g></svg>